<?xml version="1.0" encoding="UTF-8"?>
<svg version="1.1" xmlns="http://www.w3.org/2000/svg" width="1200" height="630">
<path d="M0 0 C1.03125 0.06445312 2.0625 0.12890625 3.125 0.1953125 C6.54844381 1.00465927 7.84903487 2.1345877 10 4.875 C10 5.535 10 6.195 10 6.875 C10.99 7.205 11.98 7.535 13 7.875 C13 9.525 13 11.175 13 12.875 C13.66 13.205 14.32 13.535 15 13.875 C15.26351056 20.46276391 13.90217649 25.07064703 11 30.875 C10.31039038 32.86720557 9.63920943 34.86605606 9 36.875 C8.34 36.875 7.68 36.875 7 36.875 C6.690625 38.0196875 6.690625 38.0196875 6.375 39.1875 C3.77169043 46.16910293 0.0316927 52.99443334 -4.5625 58.875 C-6.17779131 60.91353399 -6.17779131 60.91353399 -7 63.875 C-7.66 63.875 -8.32 63.875 -9 63.875 C-9.12375 64.844375 -9.2475 65.81375 -9.375 66.8125 C-9.684375 68.3284375 -9.684375 68.3284375 -10 69.875 C-10.66 70.205 -11.32 70.535 -12 70.875 C-12.72159424 72.51863134 -13.39351421 74.18550386 -14 75.875 C-14.66 75.875 -15.32 75.875 -16 75.875 C-15.67 76.865 -15.34 77.855 -15 78.875 C-15.680625 79.4628125 -15.680625 79.4628125 -16.375 80.0625 C-18.32130427 82.23337784 -18.9334061 84.14926004 -20 86.875 C-21.98542712 90.71532443 -23.9677951 94.52480533 -26.59765625 97.96484375 C-28.18701018 99.92517161 -28.18701018 99.92517161 -29 102.875 C-29.66 103.535 -30.32 104.195 -31 104.875 C-31.680625 106.23625 -31.680625 106.23625 -32.375 107.625 C-34 110.875 -34 110.875 -36.1875 114.125 C-38.18343779 116.60438973 -38.18343779 116.60438973 -38 118.875 C-38.66 118.875 -39.32 118.875 -40 118.875 C-40 120.195 -40 121.515 -40 122.875 C-39.154375 122.71902344 -38.30875 122.56304687 -37.4375 122.40234375 C-27.83261956 120.75423358 -18.96508943 120.28456034 -10 124.875 C-9.67 125.865 -9.34 126.855 -9 127.875 C-9.598125 128.431875 -10.19625 128.98875 -10.8125 129.5625 C-13.09594756 131.80500022 -13.09594756 131.80500022 -14.625 134.625 C-15.305625 135.73875 -15.305625 135.73875 -16 136.875 C-16.66 136.875 -17.32 136.875 -18 136.875 C-18.33 138.525 -18.66 140.175 -19 141.875 C-19.66 141.875 -20.32 141.875 -21 141.875 C-21.28875 142.638125 -21.5775 143.40125 -21.875 144.1875 C-23 146.875 -23 146.875 -25 149.875 C-25.7115625 151.36 -25.7115625 151.36 -26.4375 152.875 C-27.81770077 155.52498547 -28.90274421 156.86892925 -31 158.875 C-31.68486725 160.19907669 -32.34870203 161.53409241 -33 162.875 C-34.65209961 165.94726562 -34.65209961 165.94726562 -37 168.875 C-40.06860352 169.73632812 -40.06860352 169.73632812 -43.62890625 169.90625 C-44.91087891 169.99519531 -46.19285156 170.08414063 -47.51367188 170.17578125 C-49.54326576 170.28062022 -51.57318295 170.37549843 -53.60327148 170.47021484 C-55.57147923 170.57156339 -57.53782687 170.70720297 -59.50390625 170.84375 C-60.67767822 170.89982422 -61.8514502 170.95589844 -63.06079102 171.01367188 C-66.29781245 171.5995817 -66.29781245 171.5995817 -67.78100586 174.87695312 C-68.18327393 175.86630859 -68.58554199 176.85566406 -69 177.875 C-69.66 178.205 -70.32 178.535 -71 178.875 C-71.65555119 181.40233235 -71.65555119 181.40233235 -72 183.875 C-72.66 183.875 -73.32 183.875 -74 183.875 C-74.66 186.185 -75.32 188.495 -76 190.875 C-76.66 190.875 -77.32 190.875 -78 190.875 C-78.28875 191.926875 -78.5775 192.97875 -78.875 194.0625 C-80.49003688 199.53568053 -82.45356887 204.55535331 -85.625 209.3125 C-87.13740306 212.13106935 -87.34978007 213.72697939 -87 216.875 C-86.67 217.205 -86.34 217.535 -86 217.875 C-83.96698665 217.61683957 -81.93384839 217.3544531 -79.91015625 217.03125 C-78 216.875 -78 216.875 -76 217.875 C-75.814375 217.2975 -75.62875 216.72 -75.4375 216.125 C-73.2974742 212.77539441 -70.49352575 211.74653165 -67 209.875 C-66.34 209.215 -65.68 208.555 -65 207.875 C-64.01 207.875 -63.02 207.875 -62 207.875 C-62 206.885 -62 205.895 -62 204.875 C-61.01 204.875 -60.02 204.875 -59 204.875 C-58.67 204.215 -58.34 203.555 -58 202.875 C-56.68671343 201.52191687 -55.35500919 200.18629922 -54 198.875 C-49.08101402 200.03240847 -46.98470475 202.98841207 -44.0390625 206.8046875 C-43 208.875 -43 208.875 -43.12109375 210.9296875 C-44.19456552 213.30563835 -45.43015227 214.47238108 -47.4375 216.125 C-48.05496094 216.64578125 -48.67242187 217.1665625 -49.30859375 217.703125 C-51 218.875 -51 218.875 -53 218.875 C-53.28875 219.49375 -53.5775 220.1125 -53.875 220.75 C-55 222.875 -55 222.875 -57 224.875 C-57.99 224.875 -58.98 224.875 -60 224.875 C-60.33 226.195 -60.66 227.515 -61 228.875 C-61.61875 228.9575 -62.2375 229.04 -62.875 229.125 C-65.18346804 229.66310733 -65.18346804 229.66310733 -66 231.875 C-66.33 232.535 -66.66 233.195 -67 233.875 C-68.32594105 234.23662029 -69.65938457 234.57228039 -71 234.875 C-71.33 235.865 -71.66 236.855 -72 237.875 C-72.99 237.875 -73.98 237.875 -75 237.875 C-75.33 238.865 -75.66 239.855 -76 240.875 C-76.66 240.875 -77.32 240.875 -78 240.875 C-78.598125 241.473125 -79.19625 242.07125 -79.8125 242.6875 C-82.5271511 245.4021511 -85.46914929 247.02342288 -88.8046875 248.87890625 C-92.64875608 251.03838796 -92.64875608 251.03838796 -96 253.875 C-98.625 254 -98.625 254 -101 253.875 C-101 254.535 -101 255.195 -101 255.875 C-102.6396875 256.3390625 -102.6396875 256.3390625 -104.3125 256.8125 C-106.55407994 257.45837897 -108.7869351 258.1373117 -111 258.875 C-128 259.875 -128 259.875 -134 255.375 C-135 253.875 -135 253.875 -135 251.875 C-135.66 251.875 -136.32 251.875 -137 251.875 C-139.65248296 248.26762318 -140.50105792 245.28232167 -141 240.875 C-141.11472656 240.08480469 -141.22945312 239.29460937 -141.34765625 238.48046875 C-142.01635537 233.35377547 -142.13890231 229.71567365 -140 224.875 C-139.67 224.05 -139.34 223.225 -139 222.375 C-138.67 221.55 -138.34 220.725 -138 219.875 C-137.32204472 217.87879834 -136.65266469 215.87961299 -136 213.875 C-135.34 213.875 -134.68 213.875 -134 213.875 C-133.87625 212.905625 -133.7525 211.93625 -133.625 210.9375 C-133.41875 209.926875 -133.2125 208.91625 -133 207.875 C-132.34 207.545 -131.68 207.215 -131 206.875 C-130.855625 206.09125 -130.71125 205.3075 -130.5625 204.5 C-129.92138664 201.50813766 -129.0894651 200.9644651 -127 198.875 C-126.64386903 197.21305547 -126.30791692 195.546549 -126 193.875 C-125.34 193.545 -124.68 193.215 -124 192.875 C-123.855625 192.111875 -123.71125 191.34875 -123.5625 190.5625 C-123 187.875 -123 187.875 -121.625 186.0625 C-119.31030449 183.15714623 -119.31030449 183.15714623 -117 175.875 C-136.14 175.875 -155.28 175.875 -175 175.875 C-175 176.535 -175 177.195 -175 177.875 C-176.051875 177.85759766 -176.051875 177.85759766 -177.125 177.83984375 C-182.86113102 177.78528816 -188.32778253 178.01881623 -194 178.875 C-194.33 179.865 -194.66 180.855 -195 181.875 C-196.4375 183.5625 -196.4375 183.5625 -198 184.875 C-198.66 184.875 -199.32 184.875 -200 184.875 C-200.33 185.865 -200.66 186.855 -201 187.875 C-202.64821244 188.90513277 -204.31503702 189.90614628 -206 190.875 C-206.33 191.535 -206.66 192.195 -207 192.875 C-207.99 192.875 -208.98 192.875 -210 192.875 C-210.103125 193.638125 -210.20625 194.40125 -210.3125 195.1875 C-211.04711194 198.05916484 -211.6716065 199.10542094 -214 200.875 C-214.66 200.875 -215.32 200.875 -216 200.875 C-216 201.535 -216 202.195 -216 202.875 C-216.66 202.875 -217.32 202.875 -218 202.875 C-218.33 203.865 -218.66 204.855 -219 205.875 C-220.2065625 206.308125 -220.2065625 206.308125 -221.4375 206.75 C-224.23958333 207.63541667 -224.23958333 207.63541667 -225.125 210.4375 C-225.41375 211.241875 -225.7025 212.04625 -226 212.875 C-226.99 213.205 -227.98 213.535 -229 213.875 C-229.33 214.865 -229.66 215.855 -230 216.875 C-230.66 216.875 -231.32 216.875 -232 216.875 C-232 217.535 -232 218.195 -232 218.875 C-232.66 218.875 -233.32 218.875 -234 218.875 C-234 219.535 -234 220.195 -234 220.875 C-239.47619048 225.875 -239.47619048 225.875 -242 225.875 C-242.268125 226.679375 -242.53625 227.48375 -242.8125 228.3125 C-243.204375 229.158125 -243.59625 230.00375 -244 230.875 C-244.99 231.205 -245.98 231.535 -247 231.875 C-247.33 232.865 -247.66 233.855 -248 234.875 C-249.2065625 235.308125 -249.2065625 235.308125 -250.4375 235.75 C-251.283125 236.12125 -252.12875 236.4925 -253 236.875 C-253.268125 237.596875 -253.53625 238.31875 -253.8125 239.0625 C-255.39901912 242.82004527 -257.86987883 244.59289765 -260.96875 247.1640625 C-262.69932774 248.62174145 -264.25848044 250.11069888 -265.8125 251.75 C-268 253.875 -268 253.875 -271 254.875 C-271.268125 255.638125 -271.53625 256.40125 -271.8125 257.1875 C-273.40199378 260.7847754 -275.71135776 261.84583776 -279 263.875 C-279.33 264.535 -279.66 265.195 -280 265.875 C-280.66 265.875 -281.32 265.875 -282 265.875 C-282 266.535 -282 267.195 -282 267.875 C-285 269.875 -285 269.875 -288 269.875 C-288.33 270.865 -288.66 271.855 -289 272.875 C-291.3125 273.9375 -291.3125 273.9375 -294 274.875 C-294.56203125 275.2153125 -295.1240625 275.555625 -295.703125 275.90625 C-298.97592546 277.28661482 -301.89814855 277.25286772 -305.4375 277.3125 C-306.73558594 277.35246094 -308.03367187 277.39242188 -309.37109375 277.43359375 C-313.88680547 276.73849496 -315.31810507 275.5223771 -318 271.875 C-318.5234375 269.33984375 -318.5234375 269.33984375 -318.375 266.8125 C-318.34148437 265.97589844 -318.30796875 265.13929688 -318.2734375 264.27734375 C-318.02127032 262.06187499 -317.60392689 260.01844545 -317 257.875 C-316.34 257.875 -315.68 257.875 -315 257.875 C-314.67 256.225 -314.34 254.575 -314 252.875 C-313.34 252.875 -312.68 252.875 -312 252.875 C-311.896875 252.318125 -311.79375 251.76125 -311.6875 251.1875 C-310.85821592 248.3980899 -309.65700944 246.2610936 -308 243.875 C-307.34 243.875 -306.68 243.875 -306 243.875 C-305.505 242.885 -305.505 242.885 -305 241.875 C-302.87459714 237.83673457 -300.61079186 235.62607951 -297 232.875 C-295.6696875 231.51375 -295.6696875 231.51375 -294.3125 230.125 C-292 227.875 -292 227.875 -290 227.875 C-290 227.215 -290 226.555 -290 225.875 C-289.1646875 225.5346875 -289.1646875 225.5346875 -288.3125 225.1875 C-285.80327336 223.905061 -285.80327336 223.905061 -283.5625 221.375 C-281.02261898 218.8970673 -279.26870773 218.05536668 -276 216.875 C-275.67 216.215 -275.34 215.555 -275 214.875 C-273.68 214.875 -272.36 214.875 -271 214.875 C-270.67 213.885 -270.34 212.895 -270 211.875 C-267.6640625 210.8046875 -267.6640625 210.8046875 -264.625 209.75 C-256.78772257 206.66571259 -248.57265006 201.81422236 -245 193.875 C-243.35511706 192.18683067 -241.68662458 190.52146685 -240 188.875 C-238.66172696 187.21229713 -237.32810215 185.54583819 -236 183.875 C-235.2575 183.153125 -234.515 182.43125 -233.75 181.6875 C-231.7684685 180.05510877 -231.7684685 180.05510877 -232 177.875 C-232.99 178.205 -233.98 178.535 -235 178.875 C-237.63616763 178.97179233 -240.23965907 179.01424509 -242.875 179 C-243.58269531 179.00386719 -244.29039062 179.00773438 -245.01953125 179.01171875 C-248.78300455 179.00471042 -252.37890667 178.96270484 -256 177.875 C-256.33 177.215 -256.66 176.555 -257 175.875 C-259.02463255 175.22286708 -259.02463255 175.22286708 -261 174.875 C-262.85864294 169.71210295 -263.34668262 166.88836742 -261 161.875 C-256.1971831 153.97359155 -256.1971831 153.97359155 -252 151.875 C-252 151.215 -252 150.555 -252 149.875 C-251.34 149.545 -250.68 149.215 -250 148.875 C-249.690625 148.25625 -249.38125 147.6375 -249.0625 147 C-247.9574531 144.78990619 -246.89108398 143.45090332 -245 141.875 C-244.34 141.875 -243.68 141.875 -243 141.875 C-243 141.215 -243 140.555 -243 139.875 C-241.68 139.545 -240.36 139.215 -239 138.875 C-239 138.215 -239 137.555 -239 136.875 C-238.34 136.875 -237.68 136.875 -237 136.875 C-236.79375 136.276875 -236.5875 135.67875 -236.375 135.0625 C-234.48006145 132.04782503 -232.19147598 131.37687105 -229 129.875 C-228.154375 129.194375 -227.30875 128.51375 -226.4375 127.8125 C-223.94593284 125.83202354 -221.96416157 124.97794384 -219 123.875 C-217.68508253 123.17116451 -216.37277913 122.46243314 -215.0625 121.75 C-211.52916393 119.93666526 -208.99493465 119.68918909 -205 119.875 C-204.01 119.215 -203.02 118.555 -202 117.875 C-195.49329876 116.43810348 -188.62107474 116.76361743 -182 116.875 C-181.67 117.865 -181.34 118.855 -181 119.875 C-180.01 120.205 -179.02 120.535 -178 120.875 C-179 123.875 -179 123.875 -181 124.9375 C-181.66 125.246875 -182.32 125.55625 -183 125.875 C-183.33 126.535 -183.66 127.195 -184 127.875 C-186.109375 128.2890625 -186.109375 128.2890625 -188.75 128.5 C-189.61109375 128.57476562 -190.4721875 128.64953125 -191.359375 128.7265625 C-193.110895 128.82502073 -194.8670034 128.86207894 -196.62109375 128.8359375 C-199.68004158 128.88616653 -202.15010568 129.81457421 -205 130.875 C-205 131.535 -205 132.195 -205 132.875 C-201.24971611 132.73595156 -197.49985719 132.58758389 -193.75 132.4375 C-192.68652344 132.39818359 -191.62304688 132.35886719 -190.52734375 132.31835938 C-188.99013672 132.25551758 -188.99013672 132.25551758 -187.421875 132.19140625 C-186.47924805 132.15474854 -185.53662109 132.11809082 -184.56542969 132.08032227 C-182.20611787 131.89149649 -180.21609069 131.70345927 -178 130.875 C-177.34 129.885 -176.68 128.895 -176 127.875 C-175.34 127.875 -174.68 127.875 -174 127.875 C-174 127.215 -174 126.555 -174 125.875 C-173.34 125.875 -172.68 125.875 -172 125.875 C-172 125.215 -172 124.555 -172 123.875 C-171.01 123.875 -170.02 123.875 -169 123.875 C-168.01 121.895 -168.01 121.895 -167 119.875 C-166.34 119.875 -165.68 119.875 -165 119.875 C-164.21625 119.09125 -163.4325 118.3075 -162.625 117.5 C-160.37938667 115.25438667 -158.87981123 114.04825643 -156 112.875 C-156 112.215 -156 111.555 -156 110.875 C-155.01 110.875 -154.02 110.875 -153 110.875 C-153 109.885 -153 108.895 -153 107.875 C-152.01 107.875 -151.02 107.875 -150 107.875 C-149.67 106.885 -149.34 105.895 -149 104.875 C-148.01 104.875 -147.02 104.875 -146 104.875 C-145.67 103.885 -145.34 102.895 -145 101.875 C-144.01 101.875 -143.02 101.875 -142 101.875 C-141.75121094 101.27816406 -141.50242188 100.68132812 -141.24609375 100.06640625 C-139.81681368 97.55284475 -138.42041957 96.45909188 -136.0625 94.8125 C-133.46744168 92.98383273 -131.20929783 91.15275495 -129 88.875 C-127.33784732 87.53604368 -125.67036393 86.20369858 -124 84.875 C-122.8503313 83.90033941 -121.70472549 82.92087293 -120.5625 81.9375 C-119.97082031 81.43089844 -119.37914062 80.92429687 -118.76953125 80.40234375 C-117.61286555 79.4039855 -116.46401244 78.3964843 -115.32421875 77.37890625 C-111.3240085 73.875 -111.3240085 73.875 -108 73.875 C-108 72.885 -108 71.895 -108 70.875 C-107.38125 70.58625 -106.7625 70.2975 -106.125 70 C-103.86674235 68.93779958 -103.86674235 68.93779958 -102 66.875 C-100.90329744 65.90813377 -99.79826534 64.95067721 -98.6875 64 C-98.07003906 63.47148437 -97.45257813 62.94296875 -96.81640625 62.3984375 C-95.2787514 61.1087915 -93.70542841 59.86185702 -92.125 58.625 C-89.91750312 57.04845497 -89.91750312 57.04845497 -89 54.875 C-88.34 54.875 -87.68 54.875 -87 54.875 C-86.67 54.215 -86.34 53.555 -86 52.875 C-85.01 52.875 -84.02 52.875 -83 52.875 C-82.62875 51.9159375 -82.62875 51.9159375 -82.25 50.9375 C-81 48.875 -81 48.875 -78.9375 48.25 C-78.298125 48.12625 -77.65875 48.0025 -77 47.875 C-76.67 47.215 -76.34 46.555 -76 45.875 C-74.1875 43.75 -74.1875 43.75 -72 41.875 C-70.68 41.875 -69.36 41.875 -68 41.875 C-67.67 40.885 -67.34 39.895 -67 38.875 C-65.546875 37.41015625 -65.546875 37.41015625 -63.75 35.9375 C-62.80640625 35.16212891 -62.80640625 35.16212891 -61.84375 34.37109375 C-61.2353125 33.87738281 -60.626875 33.38367188 -60 32.875 C-59.0925 32.09125 -58.185 31.3075 -57.25 30.5 C-55 28.875 -55 28.875 -52 28.875 C-51.67 27.885 -51.34 26.895 -51 25.875 C-49.16796875 24.86328125 -49.16796875 24.86328125 -47 23.875 C-45.7515243 22.96337213 -44.52284397 22.02417792 -43.3125 21.0625 C-39.76178687 18.34336652 -36.10191582 16.20190433 -32.1640625 14.09765625 C-30.09654389 12.92954555 -28.22174502 11.65880414 -26.3125 10.25 C-21.29123211 6.55619374 -15.71190309 4.30784761 -10 1.875 C-9.39414062 1.51277344 -8.78828125 1.15054688 -8.1640625 0.77734375 C-5.28025793 -0.42510906 -3.10276361 -0.24046418 0 0 Z M-44 49.875 C-44 50.535 -44 51.195 -44 51.875 C-45.65 52.205 -47.3 52.535 -49 52.875 C-49 53.865 -49 54.855 -49 55.875 C-50.65 56.205 -52.3 56.535 -54 56.875 C-54 57.535 -54 58.195 -54 58.875 C-54.99 59.535 -55.98 60.195 -57 60.875 C-60.26155803 63.20468431 -63.23277198 65.80563497 -66.21875 68.47265625 C-68.05736921 69.92016568 -69.87775583 70.90230476 -72 71.875 C-72 72.865 -72 73.855 -72 74.875 C-72.99 74.875 -73.98 74.875 -75 74.875 C-76.53912084 76.19483069 -76.53912084 76.19483069 -78 77.875 C-81.8039428 81.33640767 -85.55748406 84.26175533 -90 86.875 C-90.495 87.865 -90.495 87.865 -91 88.875 C-91.99 89.205 -92.98 89.535 -94 89.875 C-94.33 90.865 -94.66 91.855 -95 92.875 C-95.99 93.205 -96.98 93.535 -98 93.875 C-99.43765096 95.31265096 -100.85171508 96.77403258 -102.25 98.25 C-105 100.875 -105 100.875 -108.1875 102.9375 C-111.06040828 104.9166146 -111.59244522 105.85881119 -113 108.875 C-114.6875 109.8125 -114.6875 109.8125 -117 110.875 C-121.42895667 113.75051664 -125.45933054 117.04282412 -129.421875 120.5234375 C-131 121.875 -131 121.875 -133.4375 123.625 C-133.953125 124.0375 -134.46875 124.45 -135 124.875 C-135 125.535 -135 126.195 -135 126.875 C-136.98 127.865 -136.98 127.865 -139 128.875 C-137.39592672 128.90208567 -135.7917215 128.92143483 -134.1875 128.9375 C-133.29417969 128.94910156 -132.40085938 128.96070313 -131.48046875 128.97265625 C-128.86586209 128.98509967 -128.86586209 128.98509967 -126 127.875 C-126 127.215 -126 126.555 -126 125.875 C-124.02 125.875 -122.04 125.875 -120 125.875 C-119.505 126.865 -119.505 126.865 -119 127.875 C-118.18144531 127.7203125 -117.36289063 127.565625 -116.51953125 127.40625 C-111.84861474 126.701206 -107.19663338 126.49501169 -102.48242188 126.26953125 C-98.94288271 126.38934024 -98.94288271 126.38934024 -96 124.875 C-93.48510484 124.59106022 -90.97010418 124.4268876 -88.4453125 124.25390625 C-85.74931222 124.0117506 -85.74931222 124.0117506 -83 121.875 C-82.65657551 120.54423011 -82.32380126 119.21068021 -82 117.875 C-81.484375 117.38 -80.96875 116.885 -80.4375 116.375 C-78.53872976 114.73994057 -78.53872976 114.73994057 -79 110.875 C-78.01 110.545 -77.02 110.215 -76 109.875 C-75.08710716 107.80485693 -75.08710716 107.80485693 -74.5 105.375 C-73.84375 102.90625 -73.84375 102.90625 -73 100.875 C-72.01 100.545 -71.02 100.215 -70 99.875 C-68.81608777 97.49874655 -68.81608777 97.49874655 -68 94.875 C-67.67 93.885 -67.34 92.895 -67 91.875 C-66.34 91.545 -65.68 91.215 -65 90.875 C-64.34444881 88.34766765 -64.34444881 88.34766765 -64 85.875 C-63.01 85.875 -62.02 85.875 -61 85.875 C-60.896875 85.111875 -60.79375 84.34875 -60.6875 83.5625 C-59.94399108 80.65605605 -59.15141968 79.83933971 -57 77.875 C-57 77.215 -57 76.555 -57 75.875 C-56 74.875 -55 73.875 -54 72.875 C-53.29848848 71.5596659 -52.63474075 70.22382408 -52 68.875 C-51.525625 68.09125 -51.05125 67.3075 -50.5625 66.5 C-48.45703119 62.96281239 -46.6555163 59.30171194 -44.9375 55.5625 C-44 53.875 -44 53.875 -42 52.875 C-42 51.885 -42 50.895 -42 49.875 C-42.66 49.875 -43.32 49.875 -44 49.875 Z M-116 175.875 C-115 177.875 -115 177.875 -115 177.875 Z M-90 214.875 C-89 216.875 -89 216.875 -89 216.875 Z " fill="#DF1D24" transform="translate(353,162.125)"/>
<path d="M0 0 C2.1649902 0.09485782 4.33293823 0.12988077 6.5 0.125 C7.6446875 0.12757813 8.789375 0.13015625 9.96875 0.1328125 C13.04679859 0.13684408 13.04679859 0.13684408 16 -1 C17.90234375 -0.29296875 17.90234375 -0.29296875 19.9375 0.8125 C20.60652344 1.16957031 21.27554688 1.52664063 21.96484375 1.89453125 C22.63644531 2.25933594 23.30804687 2.62414062 24 3 C25.33283656 3.66765928 26.66611932 4.33442915 28 5 C33.61273983 8.08700691 37.05092114 12.03180402 41 17 C41.804375 17.7734375 41.804375 17.7734375 42.625 18.5625 C44.23743871 20.24823138 45.03704072 21.88148959 46 24 C46.33 24.66 46.66 25.32 47 26 C47.33 26.66 47.66 27.32 48 28 C48.50660156 28.90492188 48.50660156 28.90492188 49.0234375 29.828125 C50.09586023 32.21319315 50.39588251 34.15333516 50.625 36.75 C50.73714844 37.94882812 50.73714844 37.94882812 50.8515625 39.171875 C50.92503906 40.07679688 50.92503906 40.07679688 51 41 C51.66 41 52.32 41 53 41 C53.05064837 47.49614132 53.0857117 53.99223185 53.10986328 60.48852539 C53.11993006 62.69915673 53.13358448 64.90977472 53.15087891 67.12036133 C53.17509738 70.29511811 53.18647627 73.46969906 53.1953125 76.64453125 C53.20563507 77.63524124 53.21595764 78.62595123 53.22659302 79.64668274 C53.22674408 80.56741074 53.22689514 81.48813873 53.22705078 82.43676758 C53.231492 83.2472908 53.23593323 84.05781403 53.24050903 84.89289856 C53 87 53 87 51 90 C50.63322321 92.60911673 50.49618999 95.19072265 50.34375 97.8203125 C50.17359375 98.89925781 50.17359375 98.89925781 50 100 C49.01 100.495 49.01 100.495 48 101 C47.855625 102.093125 47.71125 103.18625 47.5625 104.3125 C46.9848883 108.0990656 46.29357782 109.13302773 44 112 C43.28566879 114.64934822 43.28566879 114.64934822 43 117 C42.34 117 41.68 117 41 117 C40.731875 118.03125 40.46375 119.0625 40.1875 120.125 C38.11698793 127.28552092 34.27191633 133.72808367 29 139 C28.505 139.70125 28.01 140.4025 27.5 141.125 C26.7575 142.053125 26.7575 142.053125 26 143 C25.34 143 24.68 143 24 143 C23.64421875 143.88945312 23.64421875 143.88945312 23.28125 144.796875 C21.72026654 147.48100509 20.10023379 148.57842113 17.5 150.25 C16.7059375 150.77078125 15.911875 151.2915625 15.09375 151.828125 C13 153 13 153 11 153 C10.67 153.66 10.34 154.32 10 155 C7.32740027 155.74482287 4.70305881 156.40322078 2 157 C1.35675781 157.16371094 0.71351563 157.32742188 0.05078125 157.49609375 C-4.20219306 158.54111029 -8.10866903 159.1373352 -12.5 159.125 C-13.4178125 159.12757813 -14.335625 159.13015625 -15.28125 159.1328125 C-19.69274498 158.91730843 -23.12881645 158.11564683 -27 156 C-28.27617188 155.36191406 -28.27617188 155.36191406 -29.578125 154.7109375 C-32.05208333 153.47395833 -34.52604167 152.23697917 -37 151 C-37 150.34 -37 149.68 -37 149 C-37.5775 148.95875 -38.155 148.9175 -38.75 148.875 C-42.12935009 147.5608083 -43.10747341 145.01621426 -45 142 C-45.721875 141.278125 -46.44375 140.55625 -47.1875 139.8125 C-49 138 -49 138 -50 135 C-50.67964612 137.33021526 -51.34374186 139.66318891 -52 142 C-52.19078125 142.64839844 -52.3815625 143.29679688 -52.578125 143.96484375 C-53.54866316 147.46571355 -54.09584902 150.54523727 -54 154.1875 C-54 157.90347121 -54.51956578 159.69079409 -56 163 C-56.35236497 164.99673484 -56.68834559 166.99650739 -57 169 C-57.33 169.66 -57.66 170.32 -58 171 C-57.34 171 -56.68 171 -56 171 C-56.20496094 171.72703125 -56.40992188 172.4540625 -56.62109375 173.203125 C-58.3444413 179.634757 -59.41369527 185.7568877 -59.7890625 192.40625 C-60.19698471 197.42218234 -62.00271791 201.38625832 -64 206 C-68.50234373 206.04944705 -73.0045293 206.08574161 -77.50708008 206.10986328 C-79.03868361 206.11991935 -80.57026795 206.133566 -82.10180664 206.15087891 C-84.30359636 206.17514498 -86.50513219 206.18648688 -88.70703125 206.1953125 C-89.39150833 206.20563507 -90.07598541 206.21595764 -90.78120422 206.22659302 C-94.43061661 206.22745382 -95.87148502 206.08567666 -99 204 C-98.67515625 202.85724609 -98.67515625 202.85724609 -98.34375 201.69140625 C-96.4202558 194.75657173 -96.4202558 194.75657173 -96.0625 187.625 C-96.30769373 182.23073805 -94.45566505 177.47852157 -92.8828125 172.375 C-91.92077734 168.69713107 -91.78783975 165.63500599 -91.98828125 161.875 C-92.00601272 159.03796419 -90.94062797 156.65589075 -90 154 C-89.68896399 151.83979099 -89.48746178 149.68040092 -89.28125 147.5078125 C-88.6909743 142.24452088 -87.82396581 136.8993297 -86.375 131.80078125 C-85.78692063 129.90935237 -85.78692063 129.90935237 -87 128 C-86.34 127.67 -85.68 127.34 -85 127 C-85.020625 125.989375 -85.04125 124.97875 -85.0625 123.9375 C-84.90322581 113.90322581 -84.90322581 113.90322581 -83 112 C-82.95919217 110.00041636 -82.95745644 107.99954746 -83 106 C-82.34 106 -81.68 106 -81 106 C-81.33 104.35 -81.66 102.7 -82 101 C-81.67 101 -81.34 101 -81 101 C-80.95101562 100.10796875 -80.90203125 99.2159375 -80.8515625 98.296875 C-80.77679687 97.12640625 -80.70203125 95.9559375 -80.625 94.75 C-80.55539062 93.58984375 -80.48578125 92.4296875 -80.4140625 91.234375 C-80.02979254 88.23271912 -79.39365549 86.60602245 -78 84 C-78 82.1457163 -78.00633537 80.29093292 -78.0625 78.4375 C-77.93760828 73.56672298 -76.89223296 68.77981941 -76 64 C-75.34 64 -74.68 64 -74 64 C-74.03480469 63.23816406 -74.06960938 62.47632813 -74.10546875 61.69140625 C-74.26366387 55.65739253 -73.90228104 51.00854147 -71.72265625 45.40234375 C-70.52971028 41.43660444 -70.54213384 37.39327015 -70.31640625 33.27734375 C-69.91865676 29.15744467 -68.81861882 25.44812378 -67.625 21.5 C-67.02477206 19.09908824 -66.86290813 17.14903181 -66.9375 14.6875 C-67.0014242 10.91597216 -66.27100948 8.50640358 -65 5 C-60.62176083 4.95061851 -56.24366854 4.9142896 -51.86523438 4.89013672 C-50.3752968 4.88006957 -48.88537903 4.86641482 -47.39550781 4.84912109 C-45.25580972 4.82490347 -43.11637247 4.81352436 -40.9765625 4.8046875 C-39.68830566 4.79421387 -38.40004883 4.78374023 -37.07275391 4.77294922 C-34 5 -34 5 -32 7 C-32.33 8.010625 -32.66 9.02125 -33 10.0625 C-34.06890051 13.75848696 -34.15404773 17.14880666 -34 21 C-34 21.33 -34 21.66 -34 22 C-33.566875 21.566875 -33.13375 21.13375 -32.6875 20.6875 C-32.130625 20.130625 -31.57375 19.57375 -31 19 C-30.484375 18.443125 -29.96875 17.88625 -29.4375 17.3125 C-28 16 -28 16 -26 16 C-25.67 14.68 -25.34 13.36 -25 12 C-24.01 12 -23.02 12 -22 12 C-22 11.01 -22 10.02 -22 9 C-21.01 9 -20.02 9 -19 9 C-18.67 8.01 -18.34 7.02 -18 6 C-13.33374004 2.53793616 -5.71086918 -1.90362306 0 0 Z M-37 23 C-36 27 -36 27 -36 27 Z M-23 36.375 C-23.66 37.24125 -24.32 38.1075 -25 39 C-25.845625 39.804375 -26.69125 40.60875 -27.5625 41.4375 C-30.14488776 44.1523179 -31.47916434 46.59622495 -33 50 C-33.30421875 50.60714844 -33.6084375 51.21429688 -33.921875 51.83984375 C-35.1854594 54.37159076 -36.37966144 56.92953291 -37.5625 59.5 C-38.21412109 60.90765625 -38.21412109 60.90765625 -38.87890625 62.34375 C-40.46912057 66.11150519 -41.13053336 69.16799823 -41.0625 73.25 C-41.041875 74.4875 -41.02125 75.725 -41 77 C-41.99 77.495 -41.99 77.495 -43 78 C-44.29545448 79.07029129 -44.29545448 79.07029129 -44.11352539 81.59204102 C-44.10828857 82.71795654 -44.10305176 83.84387207 -44.09765625 85.00390625 C-44.09443359 86.21884766 -44.09121094 87.43378906 -44.08789062 88.68554688 C-44.07951172 89.96494141 -44.07113281 91.24433594 -44.0625 92.5625 C-44.05573242 94.48739258 -44.05573242 94.48739258 -44.04882812 96.45117188 C-44.03699545 99.63416022 -44.02051068 102.81705762 -44 106 C-43.34 106.33 -42.68 106.66 -42 107 C-42.495 107.99 -42.495 107.99 -43 109 C-42.34 109 -41.68 109 -41 109 C-41.061875 109.763125 -41.12375 110.52625 -41.1875 111.3125 C-41.26545111 114.02676314 -41.26545111 114.02676314 -39.5625 115.6875 C-39.046875 116.120625 -38.53125 116.55375 -38 117 C-37.67 117.66 -37.34 118.32 -37 119 C-36.34 119 -35.68 119 -35 119 C-35 119.99 -35 120.98 -35 122 C-34.38125 122.28875 -33.7625 122.5775 -33.125 122.875 C-31 124 -31 124 -29 126 C-22.17557453 129.13554684 -15.11395736 130.22548579 -7.875 127.8125 C-4.086221 126.26020414 -1.62459048 124.1813218 1 121 C1.495 119.515 1.495 119.515 2 118 C2.804375 117.319375 3.60875 116.63875 4.4375 115.9375 C7.91762406 111.94808949 8.33115646 108.14111077 9 103 C9.66 103 10.32 103 11 103 C11.12375 101.865625 11.2475 100.73125 11.375 99.5625 C11.58125 98.386875 11.7875 97.21125 12 96 C12.66 95.67 13.32 95.34 14 95 C14.24070676 92.90241255 14.47009275 90.80302625 14.6484375 88.69921875 C15.02087593 85.83971923 15.74665342 83.26396622 16.5625 80.5 C17.90977647 75.34864879 18.29805674 70.54201 18.3125 65.25 C18.31773682 64.55326172 18.32297363 63.85652344 18.32836914 63.13867188 C18.26150248 58.14438331 17.31472021 53.81566078 16 49 C15.72278967 47.43861876 15.45054713 45.87632964 15.1875 44.3125 C14.24329803 39.95118612 12.41958434 37.91915736 9 35 C8.525625 34.278125 8.05125 33.55625 7.5625 32.8125 C5.25260464 30.13302138 3.46767937 29.74307415 0 29 C-8.8314506 28.3775189 -16.93951056 29.17816879 -23 36.375 Z M-37 55 C-36 57 -36 57 -36 57 Z M-59 174 C-58 177 -58 177 -58 177 Z " fill="#DF1D24" transform="translate(808,264)"/>
<path d="M0 0 C0.85722656 -0.00257813 1.71445312 -0.00515625 2.59765625 -0.0078125 C4.9375 0.125 4.9375 0.125 7.9375 1.125 C8.741875 1.125 9.54625 1.125 10.375 1.125 C12.84898987 1.125 14.56313818 1.49352079 16.9375 2.125 C17.85144531 2.33898437 18.76539063 2.55296875 19.70703125 2.7734375 C34.76866002 6.36966722 34.76866002 6.36966722 39.9375 11.125 C39.9375 11.785 39.9375 12.445 39.9375 13.125 C40.9584375 13.1559375 40.9584375 13.1559375 42 13.1875 C46.35183663 14.57638403 49.17381732 17.53667006 51.9375 21.125 C52.640625 23.35546875 52.640625 23.35546875 52.9375 25.125 C53.5975 25.125 54.2575 25.125 54.9375 25.125 C55.040625 25.7025 55.14375 26.28 55.25 26.875 C55.78695462 29.19180437 55.78695462 29.19180437 57.4375 30.8125 C59.37829998 33.80456664 59.47655573 36.25589591 59.74609375 39.765625 C59.92132585 41.92562886 60.25390278 43.99225738 60.625 46.125 C61.12733328 49.97622184 60.37149356 53.07229925 59.40234375 56.796875 C58.9167938 59.22870498 58.93567865 61.27902928 59.0625 63.75 C59.22868984 69.64973936 57.51012869 74.92958551 55.8125 80.51171875 C54.91923965 84.20040545 54.86086249 87.34722161 54.9375 91.125 C54.33956327 93.47688447 53.67868205 95.81425595 52.9375 98.125 C51.9641584 101.31048161 51.83386737 101.81410211 52.9375 105.125 C52.37890625 107.359375 52.37890625 107.359375 51.5 109.875 C50.09510421 114.22318424 49.74864443 117.59246631 49.9375 122.125 C49.6075 122.785 49.2775 123.445 48.9375 124.125 C48.67243136 126.07988122 48.41234123 128.03573417 48.19140625 129.99609375 C47.97663893 131.79683516 47.68427747 133.5880635 47.375 135.375 C46.86939257 139.70877797 46.95623353 143.90199261 47.09765625 148.2578125 C46.9375 151.125 46.9375 151.125 44.9375 156.125 C34.3775 156.125 23.8175 156.125 12.9375 156.125 C12.9375 155.465 12.9375 154.805 12.9375 154.125 C12.2775 154.125 11.6175 154.125 10.9375 154.125 C10.9375 147.855 10.9375 141.585 10.9375 135.125 C10.2775 135.125 9.6175 135.125 8.9375 135.125 C8.9375 136.115 8.9375 137.105 8.9375 138.125 C4.66188133 143.11322178 -0.72908518 147.32081208 -6.0625 151.125 C-6.7225 151.125 -7.3825 151.125 -8.0625 151.125 C-8.536875 151.62 -9.01125 152.115 -9.5 152.625 C-11.0625 154.125 -11.0625 154.125 -14.0625 154.125 C-14.3925 154.785 -14.7225 155.445 -15.0625 156.125 C-17.20703125 156.72265625 -17.20703125 156.72265625 -19.875 157.1875 C-25.63401256 158.11863185 -25.63401256 158.11863185 -31.0625 160.125 C-36.01340455 160.3645599 -38.66746607 160.34797083 -43.0625 158.125 C-45.28330811 157.71197764 -45.28330811 157.71197764 -47.5625 157.5625 C-55.27184579 156.91565421 -55.27184579 156.91565421 -58.0625 154.125 C-59.0525 153.795 -60.0425 153.465 -61.0625 153.125 C-61.5575 152.135 -61.5575 152.135 -62.0625 151.125 C-63.01125 150.691875 -63.96 150.25875 -64.9375 149.8125 C-68.4317915 147.92558259 -69.25647182 146.56505368 -71.0625 143.125 C-71.59875 142.58875 -72.135 142.0525 -72.6875 141.5 C-74.0625 140.125 -74.0625 140.125 -75.0625 137.125 C-75.5575 136.67125 -76.0525 136.2175 -76.5625 135.75 C-78.50561058 133.64496354 -78.57532032 131.90888388 -79.0625 129.125 C-79.7225 128.135 -80.3825 127.145 -81.0625 126.125 C-81.49827265 122.55669988 -81.38666244 118.96703027 -81.375 115.375 C-81.39111328 114.39789063 -81.40722656 113.42078125 -81.42382812 112.4140625 C-81.42782033 106.48963471 -80.78269347 102.39101556 -78.0625 97.125 C-77.68941369 95.80223944 -77.33203585 94.47267923 -77.0625 93.125 C-76.4025 93.125 -75.7425 93.125 -75.0625 93.125 C-74.98 92.3825 -74.8975 91.64 -74.8125 90.875 C-73.91339597 87.57828523 -72.63880066 86.31095208 -70.0625 84.125 C-69.0725 83.63 -69.0725 83.63 -68.0625 83.125 C-67.7325 82.135 -67.4025 81.145 -67.0625 80.125 C-65.68707997 79.15214193 -64.30222214 78.18965955 -62.87109375 77.30078125 C-60.83552593 75.97744235 -58.96835962 74.50347083 -57.0625 73 C-53.83610127 70.55408249 -51.00849163 69.17726443 -47.0625 68.125 C-46.19625 67.774375 -45.33 67.42375 -44.4375 67.0625 C-42.29771845 66.21784939 -40.29638318 65.65061957 -38.0625 65.125 C-36.4228125 64.63 -36.4228125 64.63 -34.75 64.125 C-31.17942202 63.15670767 -27.72530215 62.60876632 -24.0625 62.125 C-23.42691162 61.96185303 -22.79132324 61.79870605 -22.13647461 61.63061523 C-14.35480679 59.73351882 -5.96410046 59.86939206 2 59.5625 C3.02416016 59.51931641 4.04832031 59.47613281 5.10351562 59.43164062 C11.05368859 59.1921129 16.98264925 59.0816244 22.9375 59.125 C23.95473492 53.53020795 23.84067007 49.49012261 22.3125 44.0078125 C21.9375 42.125 21.9375 42.125 22.9375 40.125 C22.2775 40.125 21.6175 40.125 20.9375 40.125 C19.72249689 38.61445559 18.50787772 37.10359715 17.296875 35.58984375 C12.79257753 30.73607493 4.63830487 30.85645152 -1.5 30.5 C-2.25087891 30.4484375 -3.00175781 30.396875 -3.77539062 30.34375 C-9.33028068 30.01153142 -13.83559685 30.11194599 -18.6875 33.125 C-22.0625 35.125 -22.0625 35.125 -25.0625 36.125 C-26.4351682 38.09821053 -27.76677617 40.10043152 -29.0625 42.125 C-30.0625 43.125 -31.0625 44.125 -32.0625 45.125 C-32.3925 46.115 -32.7225 47.105 -33.0625 48.125 C-33.7225 48.125 -34.3825 48.125 -35.0625 48.125 C-35.0625 48.785 -35.0625 49.445 -35.0625 50.125 C-37.9758181 49.7088117 -39.92836184 49.20971884 -42.4375 47.625 C-45.63715934 45.79662324 -48.4241478 45.4817012 -52.0625 45.125 C-52.0625 44.465 -52.0625 43.805 -52.0625 43.125 C-53.238125 43.2075 -54.41375 43.29 -55.625 43.375 C-60.42798011 43.40924585 -63.11849047 41.75433968 -67.0625 39.125 C-65.98848892 36.20982708 -65.28439824 34.34689824 -63.0625 32.125 C-62.06487872 30.35502677 -61.06750625 28.58490892 -60.07421875 26.8125 C-58.94426077 24.92778244 -57.80651133 23.47264512 -56.0625 22.125 C-55.4025 22.125 -54.7425 22.125 -54.0625 22.125 C-54.0625 21.465 -54.0625 20.805 -54.0625 20.125 C-53.4025 20.125 -52.7425 20.125 -52.0625 20.125 C-51.794375 19.485625 -51.52625 18.84625 -51.25 18.1875 C-50.0625 16.125 -50.0625 16.125 -47.0625 15.125 C-46.629375 14.67125 -46.19625 14.2175 -45.75 13.75 C-43.48079358 11.56483827 -40.87838551 10.50298653 -38.0625 9.125 C-37.4025 8.465 -36.7425 7.805 -36.0625 7.125 C-34.1875 6.4921875 -34.1875 6.4921875 -32.0625 6 C-31.36125 5.83242188 -30.66 5.66484375 -29.9375 5.4921875 C-28.0625 5.125 -28.0625 5.125 -26.0625 5.125 C-25.4025 4.465 -24.7425 3.805 -24.0625 3.125 C-19.83061259 2.1960491 -15.51853594 1.82945265 -11.2109375 1.40625 C-9.07658439 1.17448339 -9.07658439 1.17448339 -7.10546875 0.6015625 C-4.68782325 0.0375993 -2.48084204 -0.00748369 0 0 Z M7.9375 81.125 C6.52103525 81.14891779 5.10398044 81.14796995 3.6875 81.125 C0.123839 80.8454915 0.123839 80.8454915 -2.0625 82.125 C-2.0625 82.785 -2.0625 83.445 -2.0625 84.125 C-2.79855469 84.10179687 -3.53460937 84.07859375 -4.29296875 84.0546875 C-5.75669922 84.02761719 -5.75669922 84.02761719 -7.25 84 C-8.69439453 83.96519531 -8.69439453 83.96519531 -10.16796875 83.9296875 C-13.2105995 84.13499322 -15.29070642 84.90503689 -18.0625 86.125 C-19.485625 86.3415625 -19.485625 86.3415625 -20.9375 86.5625 C-27.4830698 87.74070256 -31.64197768 90.22658338 -36.0625 95.125 C-36.784375 95.74375 -37.50625 96.3625 -38.25 97 C-40.67692771 99.84536352 -41.32299322 102.49469397 -42.0625 106.125 C-41.7325 106.785 -41.4025 107.445 -41.0625 108.125 C-41.7225 108.125 -42.3825 108.125 -43.0625 108.125 C-44.06467064 111.70827753 -44.06467064 111.70827753 -43.0625 115.125 C-42.4025 115.125 -41.7425 115.125 -41.0625 115.125 C-41.0625 115.785 -41.0625 116.445 -41.0625 117.125 C-42.0525 117.62 -42.0525 117.62 -43.0625 118.125 C-41.8559375 119.5171875 -41.8559375 119.5171875 -40.625 120.9375 C-38.73541506 123.11779031 -38.00470855 124.29837435 -37.0625 127.125 C-35.33472111 128.11065461 -35.33472111 128.11065461 -33.25 128.75 C-32.56292969 128.98976563 -31.87585938 129.22953125 -31.16796875 129.4765625 C-29.14566571 130.09938681 -27.12059091 130.63475812 -25.0625 131.125 C-25.0625 130.465 -25.0625 129.805 -25.0625 129.125 C-24.39863281 129.23199219 -23.73476563 129.33898437 -23.05078125 129.44921875 C-17.65265258 130.18210337 -14.59324756 130.55738452 -10.0625 127.125 C-9.0725 127.125 -8.0825 127.125 -7.0625 127.125 C-5.2791156 125.84892391 -5.2791156 125.84892391 -3.5625 124.1875 C-1.25854302 122.05027675 -0.11493655 121.14247885 2.9375 120.125 C5.46581734 117.29021995 7.29452135 114.52831293 8.9375 111.125 C9.5975 110.465 10.2575 109.805 10.9375 109.125 C11.97505118 107.14422047 12.96745879 105.13970098 13.9375 103.125 C14.28296875 102.47789062 14.6284375 101.83078125 14.984375 101.1640625 C17.13568784 97.09527518 18.32315914 93.73255645 18.9375 89.125 C19.5974679 87.45566942 20.26308869 85.7885479 20.9375 84.125 C20.9375 83.135 20.9375 82.145 20.9375 81.125 C16.21911491 80.27569068 12.62296775 80.26440388 7.9375 81.125 Z M49.9375 107.125 C50.9375 109.125 50.9375 109.125 50.9375 109.125 Z " fill="#DF1D24" transform="translate(953.0625,262.875)"/>
<path d="M0 0 C1.60407328 -0.02708567 3.2082785 -0.04643483 4.8125 -0.0625 C5.70582031 -0.07410156 6.59914063 -0.08570313 7.51953125 -0.09765625 C10 0 10 0 13 1 C14.35083198 1.17403357 15.70585728 1.31685482 17.0625 1.4375 C30.22421117 2.81614078 30.22421117 2.81614078 35 6 C36.98799818 6.70164642 38.98698517 7.37372872 41 8 C41 8.66 41 9.32 41 10 C41.99 10 42.98 10 44 10 C44 10.66 44 11.32 44 12 C45.1446875 12.1546875 45.1446875 12.1546875 46.3125 12.3125 C49.22091043 13.05651197 50.07329888 13.79805587 52 16 C52.66 16.33 53.32 16.66 54 17 C54 17.66 54 18.32 54 19 C54.66 19.33 55.32 19.66 56 20 C60 24.58823529 60 24.58823529 60 27 C60.7425 27.61875 60.7425 27.61875 61.5 28.25 C63.65847858 30.76822501 63.21374961 32.79375585 63 36 C63.66 36 64.32 36 65 36 C66.45228197 45.25829757 66.71881276 54.76138143 65 64 C64.34 64 63.68 64 63 64 C63.02320313 64.85722656 63.04640625 65.71445312 63.0703125 66.59765625 C63.16864532 72.82774275 63.02412659 78.0466865 61 84 C60.45178046 87.4111438 60.02097436 90.81822221 59.625 94.25 C59.09223651 97.44658092 58.34811995 100.33797201 57.4375 103.4375 C56.45249872 106.90149972 56 109.3483144 56 113 C56 117.58999322 54.93789186 121.23570964 53.55859375 125.58203125 C52.75057288 128.12113754 52.75057288 128.12113754 54 131 C53.34 131 52.68 131 52 131 C52.02320313 132.21816406 52.04640625 133.43632812 52.0703125 134.69140625 C52.0890835 136.31509799 52.10728227 137.93879642 52.125 139.5625 C52.14175781 140.36236328 52.15851563 141.16222656 52.17578125 141.98632812 C52.18222656 142.77587891 52.18867187 143.56542969 52.1953125 144.37890625 C52.20578613 145.0963501 52.21625977 145.81379395 52.22705078 146.55297852 C52 149 52 149 50 156 C39.77 156 29.54 156 19 156 C17.18752079 152.37504158 16.75135958 151.4048294 16.8046875 147.671875 C16.81113281 146.87265625 16.81757812 146.0734375 16.82421875 145.25 C16.84097656 144.425 16.85773438 143.6 16.875 142.75 C16.88402344 141.90953125 16.89304687 141.0690625 16.90234375 140.203125 C16.92584183 138.13529396 16.96171092 136.06761005 17 134 C14.99796689 134.86027573 14.99796689 134.86027573 13 136 C12.33820153 137.98045559 12.33820153 137.98045559 12 140 C11.34 140.66 10.68 141.32 10 142 C9.67 142.66 9.34 143.32 9 144 C8.01 144 7.02 144 6 144 C5.67 144.99 5.34 145.98 5 147 C4.01 147 3.02 147 2 147 C1.67 147.99 1.34 148.98 1 150 C0.01 150.33 -0.98 150.66 -2 151 C-2.680625 151.515625 -3.36125 152.03125 -4.0625 152.5625 C-6 154 -6 154 -8 154 C-8.66 154.66 -9.32 155.32 -10 156 C-12.0234375 156.59765625 -12.0234375 156.59765625 -14.375 157.0625 C-18.33537294 157.86384636 -22.16280686 158.72093562 -26 160 C-38.1875 160.40625 -38.1875 160.40625 -43 158 C-44.155 157.690625 -45.31 157.38125 -46.5 157.0625 C-50 156 -50 156 -52 154 C-53.35515095 153.25439486 -54.73270034 152.54869338 -56.125 151.875 C-56.84945313 151.52179688 -57.57390625 151.16859375 -58.3203125 150.8046875 C-58.87460937 150.53914062 -59.42890625 150.27359375 -60 150 C-60 149.34 -60 148.68 -60 148 C-61.32 147.34 -62.64 146.68 -64 146 C-64 145.34 -64 144.68 -64 144 C-64.66 143.67 -65.32 143.34 -66 143 C-70.06737189 138.27660039 -72.94531867 134.17741921 -74 128 C-74.33386719 127.09894531 -74.66773438 126.19789063 -75.01171875 125.26953125 C-78.05303902 115.20793021 -76.05148736 104.45347051 -72 95 C-71.67 94.01 -71.34 93.02 -71 92 C-70.01 91.505 -70.01 91.505 -69 91 C-68.5875 90.113125 -68.175 89.22625 -67.75 88.3125 C-64.74269 82.62009178 -60.60574366 79.09791097 -55 76 C-52.95100218 74.50981977 -50.96631837 72.97263368 -49 71.375 C-46.89858202 69.93027514 -45.4553379 69.57772656 -43 69 C-42.01 68.484375 -41.02 67.96875 -40 67.4375 C-37 66 -37 66 -33 66 C-32.67 65.34 -32.34 64.68 -32 64 C-30.0390625 63.62109375 -30.0390625 63.62109375 -27.625 63.4375 C-24.80522535 63.21246912 -22.71336297 62.90445432 -20 62 C-19.01 62.495 -19.01 62.495 -18 63 C-18 62.34 -18 61.68 -18 61 C-9.23846009 60.27501342 -0.46878271 59.78376063 8.3125 59.375 C9.32570313 59.32287354 10.33890625 59.27074707 11.3828125 59.21704102 C17.39429176 58.95261078 23.03799347 59.17211516 29 60 C29.82726936 53.78911618 30.2978562 48.16481694 29 42 C27.56308045 40.14198761 27.56308045 40.14198761 26 39 C26 38.34 26 37.68 26 37 C25.401875 36.731875 24.80375 36.46375 24.1875 36.1875 C22 35 22 35 20.61328125 33.46484375 C18.64417492 31.67691428 17.62353208 31.55826143 15 31.375 C13.81277344 31.2821875 13.81277344 31.2821875 12.6015625 31.1875 C11.74304688 31.125625 10.88453125 31.06375 10 31 C9.07960938 30.896875 8.15921875 30.79375 7.2109375 30.6875 C-3.99245042 29.4529669 -11.17154112 31.54216816 -20.10546875 38.375 C-22.77956405 40.668657 -24.81782062 43.2401849 -27 46 C-27.99 46.495 -27.99 46.495 -29 47 C-29.33 47.99 -29.66 48.98 -30 50 C-32.31 49.34 -34.62 48.68 -37 48 C-37 47.34 -37 46.68 -37 46 C-38.8253125 46.0928125 -38.8253125 46.0928125 -40.6875 46.1875 C-44.66708611 46.201488 -46.65832729 45.19846889 -50 43 C-51.99422795 42.63371323 -53.99453311 42.29868656 -56 42 C-58.3125 41.125 -58.3125 41.125 -60 40 C-60.495 38.515 -60.495 38.515 -61 37 C-59.625 34.9375 -59.625 34.9375 -58 33 C-57.67 32.34 -57.34 31.68 -57 31 C-56.34 31 -55.68 31 -55 31 C-54.71125 30.05125 -54.4225 29.1025 -54.125 28.125 C-52.92649924 24.79583121 -52.14511099 23.57255549 -49 22 C-48.67 21.01 -48.34 20.02 -48 19 C-46.66666667 18.66666667 -45.33333333 18.33333333 -44 18 C-43.505 16.515 -43.505 16.515 -43 15 C-42.01 15 -41.02 15 -40 15 C-39.74089844 14.38125 -39.48179687 13.7625 -39.21484375 13.125 C-35.82210972 7.19044273 -25.13310248 5.11952806 -19 3 C-18.505 3.495 -18.505 3.495 -18 4 C-15.884672 3.70972214 -15.884672 3.70972214 -13.5 3.125 C-12.6853125 2.94195312 -11.870625 2.75890625 -11.03125 2.5703125 C-9.02171425 2.18492743 -9.02171425 2.18492743 -8 1 C-5.30917128 1.17635452 -2.67148554 1.61835921 0 2 C0 1.34 0 0.68 0 0 Z M13 81 C10.66666667 81 8.33333333 81 6 81 C5.01 81.33 4.02 81.66 3 82 C3 82.66 3 83.32 3 84 C2.29875 83.96519531 1.5975 83.93039062 0.875 83.89453125 C-4.674507 83.73618934 -9.04578517 83.97727666 -14.1484375 86.203125 C-16.0360035 87.01549518 -17.89340512 87.58678904 -19.875 88.125 C-22.87511133 88.85860305 -22.87511133 88.85860305 -25 90 C-25 90.66 -25 91.32 -25 92 C-25.94875 92.2475 -26.8975 92.495 -27.875 92.75 C-31.08246095 93.66955467 -31.08246095 93.66955467 -32.25 96.0625 C-32.4975 96.701875 -32.745 97.34125 -33 98 C-33.66 98.33 -34.32 98.66 -35 99 C-35.35919668 100.66128463 -35.68911632 102.32900023 -36 104 C-36.350625 104.61875 -36.70125 105.2375 -37.0625 105.875 C-39.00256837 110.2724883 -38.26897134 114.1789296 -36.8125 118.625 C-34.01471911 123.83466096 -30.69868953 127.34952314 -25.078125 129.5 C-18.03553614 131.19445747 -9.78857755 130.48595798 -3 128 C-0.13321195 126.00917635 -0.13321195 126.00917635 2 124 C2.66 124 3.32 124 4 124 C4.33 122.68 4.66 121.36 5 120 C5.99 120.33 6.98 120.66 8 121 C8.33 120.01 8.66 119.02 9 118 C9.66 117.67 10.32 117.34 11 117 C11 116.01 11 115.02 11 114 C11.99 114 12.98 114 14 114 C14.433125 112.88625 14.433125 112.88625 14.875 111.75 C16.33284853 108.18637025 17.84068494 105.22690327 20.0625 102.0625 C21.95245135 99.07515754 22.49970633 97.41867341 23 94 C23.87334149 90.88872095 24.76661787 87.78501262 25.6875 84.6875 C26.19577801 82.88938712 26.19577801 82.88938712 25 81 C20.79290662 79.63888155 17.30207896 80.33243602 13 81 Z M18 129 C19 132 19 132 19 132 Z " fill="#DF1D24" transform="translate(560,263)"/>
<path d="M0 0 C0.77403168 0.02361099 1.54806335 0.04722198 2.34555054 0.07154846 C4.8216978 0.14822063 7.29753509 0.23222941 9.7734375 0.31640625 C11.45050558 0.3696234 13.12758887 0.42236382 14.8046875 0.47460938 C18.91946773 0.60384053 23.03398475 0.73965271 27.1484375 0.87890625 C27.65355994 2.48146733 28.15235377 4.08602417 28.6484375 5.69140625 C28.926875 6.58472656 29.2053125 7.47804688 29.4921875 8.3984375 C30.1484375 10.87890625 30.1484375 10.87890625 30.1484375 13.87890625 C30.8084375 14.53890625 31.4684375 15.19890625 32.1484375 15.87890625 C32.1484375 17.19890625 32.1484375 18.51890625 32.1484375 19.87890625 C32.29397377 21.25630306 32.46059854 22.63163831 32.6484375 24.00390625 C33.1484375 27.87890625 33.1484375 27.87890625 33.1484375 29.87890625 C33.8084375 29.87890625 34.4684375 29.87890625 35.1484375 29.87890625 C35.1071875 30.78640625 35.0659375 31.69390625 35.0234375 32.62890625 C34.91758952 35.75688455 34.91758952 35.75688455 36.12890625 37.81640625 C37.24011141 40.06436153 37.4383394 41.64210185 37.5859375 44.12890625 C37.87347171 47.37697791 38.45815876 49.99489564 39.7109375 53.00390625 C41.25817356 56.74244314 41.1484375 59.82995606 41.1484375 63.87890625 C41.6434375 64.97203125 42.1384375 66.06515625 42.6484375 67.19140625 C44.56148867 71.8943237 44.42030284 75.87457009 44.1484375 80.87890625 C44.8084375 80.87890625 45.4684375 80.87890625 46.1484375 80.87890625 C46.28121094 81.64976562 46.41398437 82.420625 46.55078125 83.21484375 C46.72738281 84.21773438 46.90398437 85.220625 47.0859375 86.25390625 C47.34697266 87.75050781 47.34697266 87.75050781 47.61328125 89.27734375 C48.02555812 91.84800281 48.02555812 91.84800281 49.1484375 93.87890625 C51.42538467 91.60195908 51.99378757 89.86741194 53.1484375 86.87890625 C54.13130758 84.8704326 55.13221092 82.87071034 56.1484375 80.87890625 C56.7053125 79.76515625 57.2621875 78.65140625 57.8359375 77.50390625 C58.2690625 76.63765625 58.7021875 75.77140625 59.1484375 74.87890625 C59.8084375 74.87890625 60.4684375 74.87890625 61.1484375 74.87890625 C61.0865625 74.15703125 61.0246875 73.43515625 60.9609375 72.69140625 C61.18709912 69.29898191 62.27951217 67.68229424 64.1484375 64.87890625 C66.45604542 60.55214141 68.26881163 55.98117812 70.16015625 51.4609375 C70.68029297 50.24470703 70.68029297 50.24470703 71.2109375 49.00390625 C71.53191406 48.24335938 71.85289063 47.4828125 72.18359375 46.69921875 C73.1484375 44.87890625 73.1484375 44.87890625 75.1484375 43.87890625 C76.05569184 41.765632 76.05569184 41.765632 76.7734375 39.31640625 C77.03382812 38.49011719 77.29421875 37.66382813 77.5625 36.8125 C77.75585938 36.17441406 77.94921875 35.53632813 78.1484375 34.87890625 C78.4784375 34.87890625 78.8084375 34.87890625 79.1484375 34.87890625 C79.4784375 33.22890625 79.8084375 31.57890625 80.1484375 29.87890625 C81.1384375 29.87890625 82.1284375 29.87890625 83.1484375 29.87890625 C82.8390625 28.98171875 82.8390625 28.98171875 82.5234375 28.06640625 C82.1484375 25.87890625 82.1484375 25.87890625 84.1484375 22.87890625 C84.8084375 22.87890625 85.4684375 22.87890625 86.1484375 22.87890625 C86.2721875 21.78578125 86.3959375 20.69265625 86.5234375 19.56640625 C87.1484375 15.87890625 87.1484375 15.87890625 89.1484375 12.87890625 C89.832142 11.55422879 90.49807936 10.22026992 91.1484375 8.87890625 C91.81510417 7.54557292 92.48177083 6.21223958 93.1484375 4.87890625 C93.4784375 4.15703125 93.8084375 3.43515625 94.1484375 2.69140625 C95.1484375 0.87890625 95.1484375 0.87890625 97.1484375 -0.12109375 C99.25553142 -0.1374606 101.36332198 -0.08535519 103.46875 0 C104.72558594 0.04833984 105.98242188 0.09667969 107.27734375 0.14648438 C108.59605469 0.20255859 109.91476562 0.25863281 111.2734375 0.31640625 C112.61326188 0.36963038 113.95310558 0.42237076 115.29296875 0.47460938 C118.57834637 0.60460633 121.86344428 0.73958311 125.1484375 0.87890625 C125.2734375 6.62890625 125.2734375 6.62890625 124.1484375 8.87890625 C123.4884375 8.87890625 122.8284375 8.87890625 122.1484375 8.87890625 C122.1484375 10.52890625 122.1484375 12.17890625 122.1484375 13.87890625 C121.1584375 14.20890625 120.1684375 14.53890625 119.1484375 14.87890625 C119.1896875 15.66265625 119.2309375 16.44640625 119.2734375 17.25390625 C119.1484375 19.87890625 119.1484375 19.87890625 117.1484375 21.87890625 C116.44133072 23.52882207 115.76899761 25.19452881 115.1484375 26.87890625 C114.4884375 26.87890625 113.8284375 26.87890625 113.1484375 26.87890625 C112.9628125 28.27109375 112.9628125 28.27109375 112.7734375 29.69140625 C112.1484375 32.87890625 112.1484375 32.87890625 110.1484375 35.87890625 C109.464733 37.20358371 108.79879564 38.53754258 108.1484375 39.87890625 C107.8184375 40.49765625 107.4884375 41.11640625 107.1484375 41.75390625 C106.06328707 43.93164343 106.06328707 43.93164343 105.3125 46.58203125 C104.04104044 50.1830778 102.36590363 53.4250061 100.5234375 56.75390625 C97.18834161 62.88210646 94.01087816 69.07124736 90.93896484 75.33544922 C89.37486465 78.50547923 87.75268885 81.60524084 85.97265625 84.66015625 C84.07407085 87.74609191 84.07407085 87.74609191 83.2109375 90.87890625 C82.03752532 94.19207006 80.43209004 96.4342891 78.26953125 99.16796875 C77.02149338 101.07263979 76.61377485 102.66301411 76.1484375 104.87890625 C74.701699 108.67659482 72.96376206 112.24825713 71.1484375 115.87890625 C70.4884375 115.87890625 69.8284375 115.87890625 69.1484375 115.87890625 C68.9628125 117.02359375 68.9628125 117.02359375 68.7734375 118.19140625 C68.1484375 120.87890625 68.1484375 120.87890625 66.1484375 123.87890625 C65.51551367 125.9917097 65.51551367 125.9917097 65.1484375 127.87890625 C64.4884375 127.87890625 63.8284375 127.87890625 63.1484375 127.87890625 C62.9628125 129.24015625 62.9628125 129.24015625 62.7734375 130.62890625 C62.03959516 134.44488644 61.01203165 136.80804951 58.5859375 139.81640625 C56.94153482 142.17576661 56.6766554 144.08689737 56.1484375 146.87890625 C55.4884375 147.20890625 54.8284375 147.53890625 54.1484375 147.87890625 C54.0040625 148.64203125 53.8596875 149.40515625 53.7109375 150.19140625 C53.09016234 153.15733201 52.00344652 154.53998184 50.1484375 156.87890625 C50.1484375 157.53890625 50.1484375 158.19890625 50.1484375 158.87890625 C49.1584375 158.87890625 48.1684375 158.87890625 47.1484375 158.87890625 C47.4784375 159.86890625 47.8084375 160.85890625 48.1484375 161.87890625 C47.12590683 164.47456103 46.13797074 165.88937301 44.1484375 167.87890625 C43.46357025 169.20298294 42.79973547 170.53799866 42.1484375 171.87890625 C41.6534375 172.68328125 41.1584375 173.48765625 40.6484375 174.31640625 C39.2048841 176.78247663 38.14173723 179.20463774 37.1484375 181.87890625 C36.4884375 181.87890625 35.8284375 181.87890625 35.1484375 181.87890625 C35.06335937 182.47703125 34.97828125 183.07515625 34.890625 183.69140625 C33.93507249 186.50777155 32.71548121 187.23298668 30.2734375 188.87890625 C27.8920329 190.49580089 26.26632213 191.71468885 24.578125 194.06640625 C24.10632812 194.66453125 23.63453125 195.26265625 23.1484375 195.87890625 C22.1584375 195.87890625 21.1684375 195.87890625 20.1484375 195.87890625 C19.6946875 196.35328125 19.2409375 196.82765625 18.7734375 197.31640625 C16.67168262 199.3373244 14.97837875 199.38366653 12.1484375 199.87890625 C11.1584375 200.53890625 10.1684375 201.19890625 9.1484375 201.87890625 C6.24658882 202.05098553 3.44299503 202.11091729 0.54296875 202.07421875 C-0.29623611 202.07138885 -1.13544098 202.06855896 -2.00007629 202.06564331 C-4.67988353 202.0544501 -7.35935631 202.02934726 -10.0390625 202.00390625 C-11.85611496 201.99387533 -13.67317267 201.98474968 -15.49023438 201.9765625 C-19.94413925 201.95451359 -24.39779417 201.91998976 -28.8515625 201.87890625 C-30.15797881 191.71623278 -29.95571715 182.07261971 -28.8515625 171.87890625 C-25.44178681 170.87384136 -22.91390205 171.11107203 -19.3984375 171.61328125 C-11.67244527 172.41905958 -4.16330215 172.68954712 3.1484375 169.87890625 C4.16164063 169.50958984 4.16164063 169.50958984 5.1953125 169.1328125 C8.64636397 167.73181225 10.03204541 167.05349438 12.1484375 163.87890625 C12.8084375 163.87890625 13.4684375 163.87890625 14.1484375 163.87890625 C14.4784375 162.88890625 14.8084375 161.89890625 15.1484375 160.87890625 C15.8084375 160.87890625 16.4684375 160.87890625 17.1484375 160.87890625 C17.2515625 160.15703125 17.3546875 159.43515625 17.4609375 158.69140625 C18.21562033 155.60406741 19.471196 153.56249264 21.1484375 150.87890625 C24.04685908 144.59899283 24.41905838 139.66422842 22.6640625 133.0546875 C22.08536444 130.61275703 21.6807751 128.16759006 21.2734375 125.69140625 C20.6246051 122.00485853 19.78884207 118.58805105 18.5234375 115.06640625 C17.26703109 111.55604461 16.85895221 108.64221506 17.1484375 104.87890625 C16.4884375 104.87890625 15.8284375 104.87890625 15.1484375 104.87890625 C14.4884375 100.91890625 13.8284375 96.95890625 13.1484375 92.87890625 C12.8184375 92.87890625 12.4884375 92.87890625 12.1484375 92.87890625 C12.01566406 92.2034375 11.88289063 91.52796875 11.74609375 90.83203125 C11.56949219 89.94 11.39289063 89.04796875 11.2109375 88.12890625 C11.03691406 87.2471875 10.86289063 86.36546875 10.68359375 85.45703125 C10.00317144 82.17908433 9.20763279 79.05649211 8.1484375 75.87890625 C7.65093778 73.37468495 7.1971405 70.86453724 6.74609375 68.3515625 C6.1619552 65.93483242 5.30313058 64.06674576 4.1484375 61.87890625 C3.78924082 60.21762162 3.45932118 58.54990602 3.1484375 56.87890625 C2.6534375 55.14640625 2.6534375 55.14640625 2.1484375 53.37890625 C0.49589425 47.59500487 -0.321624 41.76501334 -1.15625 35.81640625 C-1.90021882 32.67334697 -3.18792458 30.62058154 -4.8515625 27.87890625 C-5.29296875 25.52734375 -5.29296875 25.52734375 -5.4140625 23.25390625 C-5.60902335 19.79187414 -5.82112565 18.92456153 -7.8515625 15.87890625 C-8.23046875 13.828125 -8.23046875 13.828125 -8.4140625 11.56640625 C-8.74342944 7.96689609 -9.21249664 4.43941607 -9.8515625 0.87890625 C-6.72067379 -0.68653811 -3.42442227 -0.12257966 0 0 Z M24.1484375 135.87890625 C25.1484375 137.87890625 25.1484375 137.87890625 25.1484375 137.87890625 Z " fill="#DF1D24" transform="translate(1039.8515625,268.12109375)"/>
<path d="M0 0 C0.72822464 0.02502594 1.45644928 0.05005188 2.20674133 0.07583618 C4.53023506 0.15793953 6.85286631 0.25456429 9.17578125 0.3515625 C10.75191801 0.40981209 12.32809006 0.46711516 13.90429688 0.5234375 C17.76612011 0.66350349 21.62723328 0.81659441 25.48828125 0.9765625 C24.72415656 5.93104837 23.12431139 7.5021337 19.48828125 10.9765625 C17.91509703 13.05442738 16.40599214 15.16515117 14.91796875 17.3046875 C13.48828125 18.9765625 13.48828125 18.9765625 10.48828125 19.9765625 C10.1227968 21.30144363 9.79452465 22.63674764 9.48828125 23.9765625 C8.05078125 26.2265625 8.05078125 26.2265625 6.48828125 27.9765625 C5.82828125 27.9765625 5.16828125 27.9765625 4.48828125 27.9765625 C4.05515625 28.9046875 4.05515625 28.9046875 3.61328125 29.8515625 C2.48828125 31.9765625 2.48828125 31.9765625 0.48828125 33.9765625 C-0.32029099 35.06841005 -1.11040945 36.17404501 -1.88671875 37.2890625 C-6.93641241 44.42322273 -12.55457111 51.4325105 -19.01171875 57.3515625 C-20.58975887 58.89596135 -20.58975887 58.89596135 -21.38671875 60.8515625 C-22.92875964 63.7643064 -25.13448972 65.72445079 -27.51171875 67.9765625 C-26.52171875 69.4615625 -26.52171875 69.4615625 -25.51171875 70.9765625 C-25.01671875 72.5234375 -25.01671875 72.5234375 -24.51171875 74.1015625 C-23.84305145 77.10167312 -23.84305145 77.10167312 -21.51171875 77.9765625 C-21.17017938 79.64156693 -20.83722377 81.30834927 -20.51171875 82.9765625 C-19.85171875 83.6365625 -19.19171875 84.2965625 -18.51171875 84.9765625 C-17.98536585 86.24973024 -17.51061916 87.54482681 -17.07421875 88.8515625 C-15.94045796 92.04566016 -14.56156347 94.27449446 -12.51171875 96.9765625 C-12.34671875 97.8221875 -12.18171875 98.6678125 -12.01171875 99.5390625 C-11.42987593 102.37554622 -10.54675201 103.0263223 -8.51171875 104.9765625 C-7.94921875 106.9140625 -7.94921875 106.9140625 -7.51171875 108.9765625 C-7.16109375 109.6571875 -6.81046875 110.3378125 -6.44921875 111.0390625 C-5.51171875 112.9765625 -5.51171875 112.9765625 -5.51171875 115.9765625 C-4.85171875 115.9765625 -4.19171875 115.9765625 -3.51171875 115.9765625 C-3.22296875 116.9459375 -2.93421875 117.9153125 -2.63671875 118.9140625 C-1.86957193 122.08320453 -1.86957193 122.08320453 0.48828125 122.9765625 C0.82982062 124.64156693 1.16277623 126.30834927 1.48828125 127.9765625 C2.14828125 128.6365625 2.80828125 129.2965625 3.48828125 129.9765625 C4.18486488 131.63094863 4.84925008 133.29910568 5.48828125 134.9765625 C6.62969633 137.335487 7.84012774 139.65210776 9.05078125 141.9765625 C10.20255901 144.38027261 10.98949812 146.38289025 11.48828125 148.9765625 C10.82828125 148.9765625 10.16828125 148.9765625 9.48828125 148.9765625 C9.48828125 149.6365625 9.48828125 150.2965625 9.48828125 150.9765625 C-2.72171875 150.9765625 -14.93171875 150.9765625 -27.51171875 150.9765625 C-32.51171875 141.9765625 -32.51171875 141.9765625 -33.51171875 138.9765625 C-34.17171875 137.9865625 -34.83171875 136.9965625 -35.51171875 135.9765625 C-35.67671875 135.2753125 -35.84171875 134.5740625 -36.01171875 133.8515625 C-36.17671875 133.2328125 -36.34171875 132.6140625 -36.51171875 131.9765625 C-37.17171875 131.6465625 -37.83171875 131.3165625 -38.51171875 130.9765625 C-38.91901103 128.65499653 -39.25610552 126.3196838 -39.51171875 123.9765625 C-40.17171875 123.9765625 -40.83171875 123.9765625 -41.51171875 123.9765625 C-41.69347656 123.38488281 -41.87523437 122.79320312 -42.0625 122.18359375 C-43.4778639 117.7342703 -44.98515757 113.93118 -47.51171875 109.9765625 C-48.19925176 108.31839466 -48.86733158 106.65196914 -49.51171875 104.9765625 C-50.16207689 103.63519883 -50.82801425 102.30123996 -51.51171875 100.9765625 C-52.17838542 99.64322917 -52.84505208 98.30989583 -53.51171875 96.9765625 C-57.07795088 100.39838735 -60.09655126 103.92623655 -63.01171875 107.9140625 C-70.2761645 117.74100825 -70.2761645 117.74100825 -74.51171875 121.9765625 C-75.47078125 123.430625 -75.47078125 123.430625 -76.44921875 124.9140625 C-78.06788497 127.31753658 -79.5057516 128.97059535 -81.51171875 130.9765625 C-82.51814625 132.63935577 -83.51757282 134.30639734 -84.51171875 135.9765625 C-90.59015012 144.01577819 -90.59015012 144.01577819 -94.51171875 145.9765625 C-94.51171875 146.9665625 -94.51171875 147.9565625 -94.51171875 148.9765625 C-95.50171875 148.9765625 -96.49171875 148.9765625 -97.51171875 148.9765625 C-97.51171875 149.6365625 -97.51171875 150.2965625 -97.51171875 150.9765625 C-108.07171875 150.9765625 -118.63171875 150.9765625 -129.51171875 150.9765625 C-130.71947455 147.35329511 -130.05483003 146.33509881 -128.51171875 142.9765625 C-127.85171875 142.9765625 -127.19171875 142.9765625 -126.51171875 142.9765625 C-126.26421875 142.42484375 -126.01671875 141.873125 -125.76171875 141.3046875 C-124.26937401 138.52519543 -122.47499352 136.1950918 -120.51171875 133.7265625 C-119.81046875 132.83453125 -119.10921875 131.9425 -118.38671875 131.0234375 C-117.45859375 130.01023437 -117.45859375 130.01023437 -116.51171875 128.9765625 C-115.85171875 128.9765625 -115.19171875 128.9765625 -114.51171875 128.9765625 C-114.42921875 128.4196875 -114.34671875 127.8628125 -114.26171875 127.2890625 C-113.27276334 124.23978331 -111.66414409 122.32466287 -109.51171875 119.9765625 C-108.85171875 119.9765625 -108.19171875 119.9765625 -107.51171875 119.9765625 C-107.24359375 119.3990625 -106.97546875 118.8215625 -106.69921875 118.2265625 C-105.48242686 115.92106207 -104.20837996 113.95600058 -102.51171875 111.9765625 C-101.85171875 111.9765625 -101.19171875 111.9765625 -100.51171875 111.9765625 C-100.26421875 111.2546875 -100.01671875 110.5328125 -99.76171875 109.7890625 C-98.38902283 106.70049668 -96.78818579 104.46644832 -94.51171875 101.9765625 C-93.85171875 101.9765625 -93.19171875 101.9765625 -92.51171875 101.9765625 C-92.01671875 100.4915625 -92.01671875 100.4915625 -91.51171875 98.9765625 C-90.85171875 98.9765625 -90.19171875 98.9765625 -89.51171875 98.9765625 C-89.39699219 98.37714844 -89.28226562 97.77773438 -89.1640625 97.16015625 C-88.29374934 94.2469523 -86.47427224 92.48291746 -84.46875 90.2578125 C-81.44210919 86.72975216 -78.69597671 82.9861041 -75.93969727 79.24438477 C-74.84294194 77.78609454 -73.68213096 76.37642602 -72.51171875 74.9765625 C-71.85171875 74.9765625 -71.19171875 74.9765625 -70.51171875 74.9765625 C-69.28399048 72.74396585 -69.28399048 72.74396585 -68.51171875 69.9765625 C-69.31333666 67.30510713 -69.31333666 67.30510713 -70.51171875 64.9765625 C-70.51171875 64.3165625 -70.51171875 63.6565625 -70.51171875 62.9765625 C-71.17171875 62.9765625 -71.83171875 62.9765625 -72.51171875 62.9765625 C-72.80046875 62.0690625 -73.08921875 61.1615625 -73.38671875 60.2265625 C-74.59417679 56.73835037 -75.79902016 53.92682728 -78.01171875 50.9765625 C-80.63228571 47.48247322 -82.25393887 43.4322752 -84.07421875 39.4765625 C-84.50863281 38.538125 -84.94304687 37.5996875 -85.390625 36.6328125 C-86.51171875 33.9765625 -86.51171875 33.9765625 -87.0390625 31.7578125 C-87.41543523 29.73811312 -87.41543523 29.73811312 -89.51171875 27.9765625 C-94.51171875 18.80989583 -94.51171875 18.80989583 -94.51171875 13.9765625 C-95.50171875 13.6465625 -96.49171875 13.3165625 -97.51171875 12.9765625 C-97.66640625 11.831875 -97.66640625 11.831875 -97.82421875 10.6640625 C-98.27156505 7.93301354 -98.27156505 7.93301354 -100.13671875 6.4140625 C-100.81734375 5.7025 -100.81734375 5.7025 -101.51171875 4.9765625 C-101.09765625 2.88671875 -101.09765625 2.88671875 -100.51171875 0.9765625 C-95.01253486 0.85304085 -89.51415657 0.7622616 -84.01391602 0.7019043 C-82.14267921 0.67674672 -80.2715408 0.64261657 -78.40063477 0.59936523 C-75.71215572 0.53876573 -73.02497439 0.51036647 -70.3359375 0.48828125 C-69.49834396 0.46247482 -68.66075043 0.4366684 -67.79777527 0.41007996 C-65.43237305 0.40893555 -65.43237305 0.40893555 -61.51171875 0.9765625 C-59.52270508 3.38989258 -59.52270508 3.38989258 -58.51171875 5.9765625 C-58.18171875 6.5953125 -57.85171875 7.2140625 -57.51171875 7.8515625 C-52.51171875 18.4765625 -52.51171875 18.4765625 -52.51171875 22.9765625 C-51.85171875 22.9765625 -51.19171875 22.9765625 -50.51171875 22.9765625 C-50.40859375 23.9046875 -50.30546875 24.8328125 -50.19921875 25.7890625 C-49.47202363 29.16060352 -48.98216818 29.802567 -46.51171875 31.9765625 C-45.51171875 33.7890625 -45.51171875 33.7890625 -44.51171875 35.9765625 C-43.97546875 37.0490625 -43.43921875 38.1215625 -42.88671875 39.2265625 C-42.43296875 40.1340625 -41.97921875 41.0415625 -41.51171875 41.9765625 C-40.95484375 41.2546875 -40.39796875 40.5328125 -39.82421875 39.7890625 C-37.51171875 36.9765625 -37.51171875 36.9765625 -34.94921875 34.4765625 C-32.58192194 32.04856578 -31.22765514 29.88045486 -29.51171875 26.9765625 C-28.34544908 25.35689525 -27.15587823 23.75386747 -25.94921875 22.1640625 C-25.05009766 20.97876953 -25.05009766 20.97876953 -24.1328125 19.76953125 C-23.33037109 18.88201172 -23.33037109 18.88201172 -22.51171875 17.9765625 C-21.85171875 17.9765625 -21.19171875 17.9765625 -20.51171875 17.9765625 C-20.30546875 17.3165625 -20.09921875 16.6565625 -19.88671875 15.9765625 C-18.02047623 11.90476064 -15.53610348 8.28859252 -12.51171875 4.9765625 C-11.85171875 4.9765625 -11.19171875 4.9765625 -10.51171875 4.9765625 C-10.51171875 3.9865625 -10.51171875 2.9965625 -10.51171875 1.9765625 C-6.83111721 -0.47717186 -4.23079711 -0.19284499 0 0 Z " fill="#E01D25" transform="translate(465.51171875,268.0234375)"/>
<path d="M0 0 C1.51815699 0.00015911 3.0363194 0.00585313 4.55444336 0.01586914 C5.35208603 0.01728409 6.1497287 0.01869904 6.97154236 0.02015686 C9.52916146 0.02577223 12.08669429 0.03832727 14.64428711 0.05102539 C16.37410356 0.05603841 18.10392137 0.06060166 19.83374023 0.06469727 C24.08312264 0.07574664 28.33244023 0.09302153 32.58178711 0.11352539 C33.88690137 9.59847226 33.88690137 9.59847226 32.76928711 13.98852539 C32.5978418 14.70782227 32.42639648 15.42711914 32.24975586 16.16821289 C31.58178711 18.11352539 31.58178711 18.11352539 29.58178711 21.11352539 C30.24178711 21.11352539 30.90178711 21.11352539 31.58178711 21.11352539 C31.37682617 22.09192383 31.17186523 23.07032227 30.96069336 24.07836914 C29.17226374 32.57545727 29.17226374 32.57545727 28.01928711 41.17602539 C27.58178711 45.11352539 27.58178711 45.11352539 26.59350586 47.92993164 C25.50392838 51.35852487 25.17626095 54.40378598 24.95678711 57.98852539 C24.88202148 59.14094727 24.80725586 60.29336914 24.73022461 61.48071289 C24.68124023 62.34954102 24.63225586 63.21836914 24.58178711 64.11352539 C23.92178711 64.11352539 23.26178711 64.11352539 22.58178711 64.11352539 C22.62819336 64.66137695 22.67459961 65.20922852 22.72241211 65.77368164 C23.01077476 72.10736119 21.77891103 77.54584571 20.00683594 83.56713867 C18.69162979 88.2035784 18.39665093 92.14972988 18.64038086 96.92211914 C18.55834059 99.99042534 17.43568415 102.29320182 16.23413086 105.07836914 C15.48036827 107.42992789 15.51861698 109.21532326 15.64428711 111.67602539 C15.87433676 117.62050845 14.16641174 122.87866593 12.45678711 128.50024414 C11.42976904 132.02435915 11.42976904 132.02435915 11.70678711 135.38305664 C11.58178711 139.11352539 11.58178711 139.11352539 7.58178711 150.11352539 C-3.63821289 150.11352539 -14.85821289 150.11352539 -26.41821289 150.11352539 C-27.2578611 145.91528434 -27.34416567 143.40846093 -26.73852539 139.29321289 C-26.40573452 137.0286116 -26.15582016 134.76495635 -25.91821289 132.48852539 C-25.53699914 129.00399349 -25.00650408 125.56973615 -24.41821289 122.11352539 C-24.27383789 120.81415039 -24.12946289 119.51477539 -23.98071289 118.17602539 C-23.52005791 114.35185784 -22.55190182 110.79801442 -21.41821289 107.11352539 C-20.44487129 103.92804378 -20.31458026 103.42442328 -21.41821289 100.11352539 C-20.75821289 100.11352539 -20.09821289 100.11352539 -19.41821289 100.11352539 C-19.60383789 99.37102539 -19.78946289 98.62852539 -19.98071289 97.86352539 C-20.59760153 93.98593964 -19.56911324 91.57510292 -18.35571289 87.86352539 C-17.59804194 84.83284159 -17.33399434 82.94104958 -17.41821289 79.92602539 C-17.41821289 76.21278725 -17.06498972 75.20123194 -15.41821289 72.11352539 C-15.37822089 70.11392527 -15.3747449 68.11305297 -15.41821289 66.11352539 C-14.92321289 65.12352539 -14.92321289 65.12352539 -14.41821289 64.11352539 C-14.37822089 62.11392527 -14.3747449 60.11305297 -14.41821289 58.11352539 C-13.42821289 57.61852539 -13.42821289 57.61852539 -12.41821289 57.11352539 C-12.42981445 56.43805664 -12.44141602 55.76258789 -12.45336914 55.06665039 C-12.46239258 54.17461914 -12.47141602 53.28258789 -12.48071289 52.36352539 C-12.49231445 51.48180664 -12.50391602 50.60008789 -12.51586914 49.69165039 C-12.3631895 45.66090776 -11.12298689 42.22784738 -9.85571289 38.42602539 C-8.84044271 35.09980691 -8.28372223 32.39306102 -8.48071289 28.92602539 C-8.70502068 23.88358629 -7.23590388 19.36786601 -5.84692383 14.58300781 C-4.51671996 9.87396629 -4.12721324 5.96351948 -4.41821289 1.11352539 C-3.41821289 0.11352539 -3.41821289 0.11352539 0 0 Z M28.58178711 24.11352539 C29.58178711 27.11352539 29.58178711 27.11352539 29.58178711 27.11352539 Z " fill="#DF1D25" transform="translate(673.418212890625,268.886474609375)"/>
<path d="M0 0 C1.08522194 -0.00287018 1.08522194 -0.00287018 2.19236755 -0.00579834 C3.71963855 -0.00715785 5.2469212 -0.00347774 6.77416992 0.00488281 C9.11598533 0.01560162 11.45703633 0.00497209 13.79882812 -0.0078125 C15.28255378 -0.00649117 16.76627896 -0.00392932 18.25 0 C19.30315147 -0.00607269 19.30315147 -0.00607269 20.37757874 -0.01226807 C25.32865822 0.03568947 25.32865822 0.03568947 27.55859375 2.265625 C27.31640625 4.3671875 27.31640625 4.3671875 26.68359375 6.890625 C25.88490426 10.09549295 25.56738289 12.64515589 25.64453125 15.9765625 C25.71898155 20.98127678 24.41788587 25.48238625 23.05859375 30.265625 C22.82011719 31.13574219 22.58164062 32.00585938 22.3359375 32.90234375 C21.75248475 35.02611175 21.15993241 37.14686579 20.55859375 39.265625 C15.61071061 39.33967237 10.66314851 39.39417746 5.71484375 39.43041992 C4.03086735 39.44552503 2.3469304 39.46601046 0.66308594 39.49194336 C-1.75465618 39.52825221 -4.17187917 39.54533347 -6.58984375 39.55859375 C-7.34510345 39.57407761 -8.10036316 39.58956146 -8.87850952 39.60551453 C-11.00146484 39.60620117 -11.00146484 39.60620117 -14.44140625 39.265625 C-15.10140625 38.275625 -15.76140625 37.285625 -16.44140625 36.265625 C-15.78874156 34.26101201 -15.11936153 32.26182666 -14.44140625 30.265625 C-14.26663776 27.57127738 -14.34815442 24.96992795 -14.44140625 22.265625 C-13.78140625 21.935625 -13.12140625 21.605625 -12.44140625 21.265625 C-12.48265625 20.358125 -12.52390625 19.450625 -12.56640625 18.515625 C-12.55524497 13.08008207 -11.9252119 7.49465134 -10.44140625 2.265625 C-6.82625824 -0.14447368 -4.17622982 -0.02415065 0 0 Z " fill="#E01C22" transform="translate(688.44140625,215.734375)"/>
<path d="M0 0 C0.928125 0.37125 1.85625 0.7425 2.8125 1.125 C3.534375 1.41375 4.25625 1.7025 5 2 C5 2.66 5 3.32 5 4 C5.639375 4.103125 6.27875 4.20625 6.9375 4.3125 C7.618125 4.539375 8.29875 4.76625 9 5 C9.495 6.485 9.495 6.485 10 8 C10.99 8.33 11.98 8.66 13 9 C19.2457545 16.89904246 18.5597049 26.36885153 18 36 C16.84838782 42.08558364 12.29121294 46.76048842 8 51 C7.01 51.495 7.01 51.495 6 52 C5.1028125 52.7115625 5.1028125 52.7115625 4.1875 53.4375 C1.34291199 55.46934858 -1.45095813 57 -5 57 C-6.41732422 57.05220703 -6.41732422 57.05220703 -7.86328125 57.10546875 C-9.57064453 57.14607422 -9.57064453 57.14607422 -11.3125 57.1875 C-13.00826172 57.23970703 -13.00826172 57.23970703 -14.73828125 57.29296875 C-18.33791734 56.96964814 -20.06327131 56.02919795 -23 54 C-24.3303125 53.4740625 -24.3303125 53.4740625 -25.6875 52.9375 C-28 52 -28 52 -30 50 C-30 49.01 -30 48.02 -30 47 C-30.598125 46.95875 -31.19625 46.9175 -31.8125 46.875 C-34 46 -34 46 -35.625 43.25 C-36.07875 42.1775 -36.5325 41.105 -37 40 C-37.35191406 39.28457031 -37.70382812 38.56914062 -38.06640625 37.83203125 C-39.33282726 33.99037755 -39.32974626 30.4558775 -39.3125 26.4375 C-39.32861328 25.68275391 -39.34472656 24.92800781 -39.36132812 24.15039062 C-39.36518918 19.76808959 -39.07558851 17.19150265 -36 14 C-35.30419733 12.68163705 -34.62775567 11.35208914 -34 10 C-33.34 10 -32.68 10 -32 10 C-32 9.01 -32 8.02 -32 7 C-24.1231117 -1.24175779 -10.52408824 -5.41238824 0 0 Z M-27 14 C-28.20049407 17.10007201 -28.20049407 17.10007201 -29 20 C-29.99 20.495 -29.99 20.495 -31 21 C-31.0809723 23.43816585 -31.14046972 25.87364384 -31.1875 28.3125 C-31.21263672 29.00279297 -31.23777344 29.69308594 -31.26367188 30.40429688 C-31.38630162 34.37627857 -31.38630162 34.37627857 -29.609375 37.7890625 C-28.81273437 38.38847656 -28.81273437 38.38847656 -28 39 C-27.360625 40.010625 -26.72125 41.02125 -26.0625 42.0625 C-22.91521785 46.54499276 -19.58887127 47.40525586 -14.3046875 48.69140625 C-10.15806831 49.24663153 -6.11254525 48.62362367 -2 48 C-2 47.34 -2 46.68 -2 46 C-1.2575 45.938125 -0.515 45.87625 0.25 45.8125 C3.86065729 44.74571489 4.84459336 43.0175693 7 40 C7.77537109 39.31744141 7.77537109 39.31744141 8.56640625 38.62109375 C11.83697501 34.92276668 11.10853446 29.00348748 10.85546875 24.33203125 C10.18830665 19.48594169 9.22467001 16.70393028 5.4375 13.5 C4.50744141 12.83484375 4.50744141 12.83484375 3.55859375 12.15625 C2 11 2 11 1 9 C-0.65614657 8.61781233 -2.32457024 8.28604898 -4 8 C-4.66 7.67 -5.32 7.34 -6 7 C-14.16368795 6.1354139 -21.07124542 8.07124542 -27 14 Z M-38 18 C-37 20 -37 20 -37 20 Z " fill="#E21920" transform="translate(1146,423)"/>
<path d="M0 0 C3.55432261 1.13122509 5.59944051 2.56222351 8.13671875 5.28515625 C9.87169812 9.2077183 9.56195681 11.41958099 8.57421875 15.53515625 C7.91421875 15.53515625 7.25421875 15.53515625 6.57421875 15.53515625 C5.62700803 18.13998574 5.27199482 19.84190326 6.3984375 22.42578125 C7.403586 24.16098498 8.48483325 25.85156048 9.57421875 27.53515625 C8.57421875 28.53515625 8.57421875 28.53515625 5.32421875 28.91015625 C1.57421875 28.53515625 1.57421875 28.53515625 -1.30078125 26.22265625 C-3.42578125 23.53515625 -3.42578125 23.53515625 -4.42578125 20.53515625 C-5.41578125 20.86515625 -6.40578125 21.19515625 -7.42578125 21.53515625 C-7.42578125 23.51515625 -7.42578125 25.49515625 -7.42578125 27.53515625 C-10.1648347 28.90468298 -12.39665457 28.66136986 -15.42578125 28.53515625 C-16.08578125 28.20515625 -16.74578125 27.87515625 -17.42578125 27.53515625 C-17.51253745 23.24361603 -17.56609015 18.95229957 -17.61328125 14.66015625 C-17.63841797 13.43683594 -17.66355469 12.21351563 -17.68945312 10.953125 C-17.69912109 9.78652344 -17.70878906 8.61992187 -17.71875 7.41796875 C-17.73446045 6.33918457 -17.7501709 5.26040039 -17.76635742 4.14892578 C-17.65396729 3.28638184 -17.54157715 2.42383789 -17.42578125 1.53515625 C-12.31693227 -1.87074307 -5.90752607 -1.13203801 0 0 Z M-9.42578125 5.53515625 C-9.42578125 5.86515625 -9.42578125 6.19515625 -9.42578125 6.53515625 C-7.77578125 6.53515625 -6.12578125 6.53515625 -4.42578125 6.53515625 C-4.42578125 6.20515625 -4.42578125 5.87515625 -4.42578125 5.53515625 C-6.07578125 5.53515625 -7.72578125 5.53515625 -9.42578125 5.53515625 Z M-7.42578125 7.53515625 C-7.42578125 10.17515625 -7.42578125 12.81515625 -7.42578125 15.53515625 C-6.10578125 15.53515625 -4.78578125 15.53515625 -3.42578125 15.53515625 C-3.42578125 14.87515625 -3.42578125 14.21515625 -3.42578125 13.53515625 C-2.43578125 13.53515625 -1.44578125 13.53515625 -0.42578125 13.53515625 C-0.42578125 12.87515625 -0.42578125 12.21515625 -0.42578125 11.53515625 C0.23421875 11.53515625 0.89421875 11.53515625 1.57421875 11.53515625 C1.24421875 10.87515625 0.91421875 10.21515625 0.57421875 9.53515625 C-0.41578125 9.20515625 -1.40578125 8.87515625 -2.42578125 8.53515625 C-2.42578125 7.87515625 -2.42578125 7.21515625 -2.42578125 6.53515625 C-4.63659976 6.42974699 -4.63659976 6.42974699 -7.42578125 7.53515625 Z " fill="#E3171F" transform="translate(1140.42578125,435.46484375)"/>
<path d="M0 0 C0.66 0.33 1.32 0.66 2 1 C0.54782324 2.50596108 -0.91192861 4.00462104 -2.375 5.5 C-3.18710937 6.3353125 -3.99921875 7.170625 -4.8359375 8.03125 C-7 10 -7 10 -9 10 C-9 10.66 -9 11.32 -9 12 C-9.66 11.67 -10.32 11.34 -11 11 C-7.81316569 6.66590534 -4.13621084 3.3810038 0 0 Z " fill="#E70C12" transform="translate(61,390)"/>
<path d="M0 0 C6.6 0 13.2 0 20 0 C20 0.33 20 0.66 20 1 C13.4 1 6.8 1 0 1 C0 0.67 0 0.34 0 0 Z " fill="#FF0000" transform="translate(1019,471)"/>
<path d="M0 0 C0.33 0 0.66 0 1 0 C1 3.96 1 7.92 1 12 C0.67 12 0.34 12 0 12 C0 8.04 0 4.08 0 0 Z " fill="#D81A26" transform="translate(1164,445)"/>
<path d="M0 0 C3.96 0 7.92 0 12 0 C12 0.33 12 0.66 12 1 C8.04 1 4.08 1 0 1 C0 0.67 0 0.34 0 0 Z " fill="#FF0000" transform="translate(1025,439)"/>
<path d="M0 0 C0.33 0 0.66 0 1 0 C1 3.96 1 7.92 1 12 C0.67 12 0.34 12 0 12 C0 8.04 0 4.08 0 0 Z " fill="#FF0000" transform="translate(871,372)"/>
<path d="M0 0 C0.33 0 0.66 0 1 0 C1 3.3 1 6.6 1 10 C0.67 10 0.34 10 0 10 C0 6.7 0 3.4 0 0 Z " fill="#D30000" transform="translate(824,325)"/>
<path d="M0 0 C2.97 0 5.94 0 9 0 C9 0.33 9 0.66 9 1 C6.03 1 3.06 1 0 1 C0 0.67 0 0.34 0 0 Z " fill="#FF0000" transform="translate(192,338)"/>
<path d="M0 0 C0.33 0 0.66 0 1 0 C1 1.98 1 3.96 1 6 C0.67 6 0.34 6 0 6 C0 4.02 0 2.04 0 0 Z " fill="#FF0000" transform="translate(612,397)"/>
<path d="M0 0 C1 4 1 4 1 4 Z " fill="#FF0000" transform="translate(715,429)"/>
<path d="M0 0 C4 1 4 1 4 1 Z " fill="#FF0000" transform="translate(237,421)"/>
<path d="M0 0 C1 4 1 4 1 4 Z " fill="#FF0000" transform="translate(685,401)"/>
<path d="M0 0 C1 4 1 4 1 4 Z " fill="#FF0E0E" transform="translate(722,387)"/>
<path d="M0 0 C1 4 1 4 1 4 Z " fill="#FF0000" transform="translate(1008,347)"/>
<path d="M0 0 C1 4 1 4 1 4 Z " fill="#FF0000" transform="translate(1012,323)"/>
<path d="M0 0 C1 4 1 4 1 4 Z " fill="#F1000D" transform="translate(675,233)"/>
<path d="M0 0 C3 1 3 1 3 1 Z " fill="#FF0000" transform="translate(907,421)"/>
<path d="M0 0 C3 1 3 1 3 1 Z " fill="#FF0000" transform="translate(807,421)"/>
<path d="" fill="#FF0000" transform="translate(0,0)"/>
<path d="" fill="#FF0000" transform="translate(0,0)"/>
<path d="" fill="#EC1212" transform="translate(0,0)"/>
<path d="" fill="#FF0000" transform="translate(0,0)"/>
<path d="" fill="#FF0000" transform="translate(0,0)"/>
<path d="" fill="#FF0000" transform="translate(0,0)"/>
<path d="" fill="#FF0000" transform="translate(0,0)"/>
<path d="" fill="#FF0000" transform="translate(0,0)"/>
<path d="" fill="#FF0000" transform="translate(0,0)"/>
<path d="" fill="#FF0000" transform="translate(0,0)"/>
<path d="" fill="#FF0000" transform="translate(0,0)"/>
<path d="" fill="#FF0000" transform="translate(0,0)"/>
<path d="" fill="#FF0000" transform="translate(0,0)"/>
<path d="" fill="#FF0000" transform="translate(0,0)"/>
<path d="" fill="#FF0000" transform="translate(0,0)"/>
<path d="" fill="#FF0000" transform="translate(0,0)"/>
<path d="" fill="#FF0000" transform="translate(0,0)"/>
<path d="M0 0 C2 1 2 1 2 1 Z " fill="#FF0000" transform="translate(227,421)"/>
<path d="" fill="#FF0000" transform="translate(0,0)"/>
<path d="" fill="#FF0000" transform="translate(0,0)"/>
<path d="" fill="#FF0000" transform="translate(0,0)"/>
<path d="" fill="#FF0000" transform="translate(0,0)"/>
<path d="M0 0 C2 1 2 1 2 1 Z " fill="#FF0000" transform="translate(905,309)"/>
<path d="" fill="#FF0000" transform="translate(0,0)"/>
<path d="" fill="#FF0000" transform="translate(0,0)"/>
<path d="" fill="#9D0000" transform="translate(0,0)"/>
<path d="" fill="#FF0000" transform="translate(0,0)"/>
<path d="" fill="#FF0000" transform="translate(0,0)"/>
<path d="M0 0 C2 1 2 1 2 1 Z " fill="#FF0000" transform="translate(340,285)"/>
<path d="M0 0 C2 1 2 1 2 1 Z " fill="#DD0022" transform="translate(925,267)"/>
<path d="" fill="#FF0025" transform="translate(0,0)"/>
<path d="" fill="#FF0000" transform="translate(0,0)"/>
<path d="" fill="#FF0000" transform="translate(0,0)"/>
<path d="" fill="#FF0000" transform="translate(0,0)"/>
<path d="" fill="#BF0040" transform="translate(0,0)"/>
<path d="" fill="#CD0032" transform="translate(0,0)"/>
<path d="" fill="#FF0000" transform="translate(0,0)"/>
<path d="" fill="#FF0000" transform="translate(0,0)"/>
<path d="" fill="#FF0000" transform="translate(0,0)"/>
<path d="" fill="#FF0000" transform="translate(0,0)"/>
<path d="" fill="#FF0000" transform="translate(0,0)"/>
<path d="" fill="#FF0000" transform="translate(0,0)"/>
<path d="" fill="#FF0000" transform="translate(0,0)"/>
<path d="" fill="#FF0000" transform="translate(0,0)"/>
<path d="" fill="#FF0000" transform="translate(0,0)"/>
<path d="" fill="#FF0000" transform="translate(0,0)"/>
<path d="" fill="#FF0000" transform="translate(0,0)"/>
<path d="" fill="#FF003C" transform="translate(0,0)"/>
<path d="" fill="#FF0000" transform="translate(0,0)"/>
<path d="" fill="#FF0000" transform="translate(0,0)"/>
<path d="" fill="#FF0000" transform="translate(0,0)"/>
<path d="" fill="#FF0000" transform="translate(0,0)"/>
<path d="" fill="#FF0000" transform="translate(0,0)"/>
<path d="" fill="#FF0000" transform="translate(0,0)"/>
<path d="" fill="#FF0000" transform="translate(0,0)"/>
<path d="" fill="#FF0000" transform="translate(0,0)"/>
<path d="" fill="#FF0000" transform="translate(0,0)"/>
<path d="" fill="#FF0000" transform="translate(0,0)"/>
<path d="" fill="#FF0000" transform="translate(0,0)"/>
<path d="" fill="#FF0000" transform="translate(0,0)"/>
<path d="" fill="#FF0000" transform="translate(0,0)"/>
<path d="" fill="#FF0000" transform="translate(0,0)"/>
<path d="" fill="#FF0000" transform="translate(0,0)"/>
<path d="" fill="#FF0000" transform="translate(0,0)"/>
<path d="" fill="#FF0000" transform="translate(0,0)"/>
<path d="" fill="#FF0000" transform="translate(0,0)"/>
<path d="" fill="#FF0000" transform="translate(0,0)"/>
<path d="" fill="#FF0000" transform="translate(0,0)"/>
<path d="" fill="#FF0000" transform="translate(0,0)"/>
<path d="" fill="#FF0000" transform="translate(0,0)"/>
<path d="" fill="#FF0000" transform="translate(0,0)"/>
<path d="" fill="#FF0000" transform="translate(0,0)"/>
<path d="" fill="#FF0000" transform="translate(0,0)"/>
<path d="" fill="#FF0000" transform="translate(0,0)"/>
<path d="" fill="#000000" transform="translate(0,0)"/>
<path d="" fill="#FF0000" transform="translate(0,0)"/>
<path d="" fill="#FF0000" transform="translate(0,0)"/>
<path d="" fill="#FF0000" transform="translate(0,0)"/>
<path d="" fill="#FF0000" transform="translate(0,0)"/>
<path d="" fill="#FF0000" transform="translate(0,0)"/>
<path d="" fill="#FF0000" transform="translate(0,0)"/>
<path d="" fill="#FF0000" transform="translate(0,0)"/>
<path d="" fill="#FF0000" transform="translate(0,0)"/>
<path d="" fill="#FF0000" transform="translate(0,0)"/>
<path d="" fill="#FF0000" transform="translate(0,0)"/>
<path d="" fill="#FF0000" transform="translate(0,0)"/>
<path d="" fill="#FF0000" transform="translate(0,0)"/>
<path d="" fill="#FF0000" transform="translate(0,0)"/>
<path d="" fill="#FF0000" transform="translate(0,0)"/>
<path d="" fill="#FF0000" transform="translate(0,0)"/>
<path d="" fill="#FF0000" transform="translate(0,0)"/>
<path d="" fill="#FF0000" transform="translate(0,0)"/>
<path d="" fill="#FF0000" transform="translate(0,0)"/>
<path d="" fill="#FF0000" transform="translate(0,0)"/>
<path d="" fill="#FF0000" transform="translate(0,0)"/>
<path d="" fill="#FF0000" transform="translate(0,0)"/>
<path d="" fill="#FF0000" transform="translate(0,0)"/>
<path d="" fill="#FF0000" transform="translate(0,0)"/>
<path d="" fill="#FF0000" transform="translate(0,0)"/>
<path d="" fill="#FF0000" transform="translate(0,0)"/>
<path d="" fill="#FF0000" transform="translate(0,0)"/>
<path d="" fill="#FF0000" transform="translate(0,0)"/>
<path d="" fill="#FF0000" transform="translate(0,0)"/>
<path d="" fill="#FF0000" transform="translate(0,0)"/>
<path d="" fill="#FF0000" transform="translate(0,0)"/>
<path d="" fill="#FF0000" transform="translate(0,0)"/>
<path d="" fill="#FF0000" transform="translate(0,0)"/>
</svg>
